<?xml version="1.0" encoding="utf-8"?>
<svg version="1.1" viewBox="0 0 757 415" width="757" height="415" xmlns="http://www.w3.org/2000/svg">
  <g id="Canvas_1" fill-opacity="1" stroke-opacity="1" stroke-dasharray="none" fill="none" stroke="none">
    <title>Canvas 1</title>
    <g id="Canvas_1_Layer_1">
      <title>Layer 1</title>
      <g id="Group_2">
        <g id="Group_3">
          <g id="Group_25">
            <g id="Graphic_39">
              <title>矩形</title>
              <rect x="155.25" y="32.175" width="415.5" height="292.15" fill="#dadada"/>
            </g>
            <g id="Graphic_38">
              <title>椭圆形</title>
              <path d="M 199.59 66.86 L 199.42 68.66 L 198.98 70.3 L 198.25 71.83 L 196.71 73.82 L 194.71 75.36 L 193.19 76.09 L 191.54 76.54 L 189.74 76.71 L 187.94 76.54 L 186.29 76.09 L 184.77 75.36 L 182.77 73.82 L 181.23 71.83 L 180.5 70.3 L 180.05 68.66 L 179.88 66.86 L 180.05 65.06 L 180.5 63.41 L 181.23 61.89 L 182.77 59.9 L 184.77 58.36 L 186.29 57.63 L 187.94 57.18 L 189.74 57.01 L 191.54 57.18 L 193.19 57.63 L 194.71 58.36 L 196.71 59.9 L 198.25 61.89 L 198.98 63.41 L 199.42 65.06 Z" fill="#ff6a6a"/>
            </g>
            <g id="Graphic_37">
              <title>矩形</title>
              <path d="M 559.12 29.25 L 153.75 29.25 L 153.75 312.91 L 559.12 312.91 Z M 556.12 32.25 L 556.12 309.91 L 156.75 309.91 L 156.75 32.25 Z" fill="#a5a5a5"/>
            </g>
            <g id="Graphic_36">
              <title>椭圆形备份-27</title>
              <path d="M 229.15 66.86 L 228.99 68.66 L 228.54 70.3 L 227.81 71.83 L 226.27 73.82 L 224.27 75.36 L 222.75 76.09 L 221.1 76.54 L 219.3 76.71 L 217.5 76.54 L 215.85 76.09 L 214.33 75.36 L 212.33 73.82 L 210.79 71.83 L 210.06 70.3 L 209.61 68.66 L 209.45 66.86 L 209.61 65.06 L 210.06 63.41 L 210.79 61.89 L 212.33 59.9 L 214.33 58.36 L 215.85 57.63 L 217.5 57.18 L 219.3 57.01 L 221.1 57.18 L 222.75 57.63 L 224.27 58.36 L 226.27 59.9 L 227.81 61.89 L 228.54 63.41 L 228.99 65.06 Z" fill="#ffdf80"/>
              <path d="M 229.15 66.86 L 228.99 68.66 L 228.54 70.3 L 227.81 71.83 L 226.27 73.82 L 224.27 75.36 L 222.75 76.09 L 221.1 76.54 L 219.3 76.71 L 217.5 76.54 L 215.85 76.09 L 214.33 75.36 L 212.33 73.82 L 210.79 71.83 L 210.06 70.3 L 209.61 68.66 L 209.45 66.86 L 209.61 65.06 L 210.06 63.41 L 210.79 61.89 L 212.33 59.9 L 214.33 58.36 L 215.85 57.63 L 217.5 57.18 L 219.3 57.01 L 221.1 57.18 L 222.75 57.63 L 224.27 58.36 L 226.27 59.9 L 227.81 61.89 L 228.54 63.41 L 228.99 65.06 Z" stroke="#666" stroke-linecap="butt" stroke-linejoin="round" stroke-width="1"/>
            </g>
            <g id="Graphic_35">
              <title>椭圆形备份-28</title>
              <path d="M 258.72 66.86 L 258.55 68.66 L 258.1 70.3 L 257.37 71.83 L 255.83 73.82 L 253.83 75.36 L 252.31 76.09 L 250.66 76.54 L 248.86 76.71 L 247.06 76.54 L 245.41 76.09 L 243.89 75.36 L 241.89 73.82 L 240.35 71.83 L 239.62 70.3 L 239.18 68.66 L 239.01 66.86 L 239.18 65.06 L 239.62 63.41 L 240.35 61.89 L 241.89 59.9 L 243.89 58.36 L 245.41 57.63 L 247.06 57.18 L 248.86 57.01 L 250.66 57.18 L 252.31 57.63 L 253.83 58.36 L 255.83 59.9 L 257.37 61.89 L 258.1 63.41 L 258.55 65.06 Z" fill="#31cda6"/>
            </g>
            <g id="Graphic_34">
              <title>路径-324</title>
              <rect x="155.25" y="85.01" width="402.37" height="3" fill="#a5a5a5"/>
            </g>
            <g id="Graphic_33">
              <title>路径-325</title>
              <path d="M 541.4 127.4 L 541.4 288.01 L 386.98 288.01 Z" fill="#26c2a1"/>
            </g>
            <g id="Group_28">
              <g id="Group_31">
                <g id="Graphic_32">
                  <path d="M 298.27 200.85 L 298.06 205.96 L 297.46 210.9 L 296.48 215.67 L 295.13 220.3 L 293.42 224.84 L 291.39 229.16 L 289.05 233.27 L 286.39 237.2 L 282.4 242.1 L 277.96 246.53 L 273.06 250.52 L 269.13 253.18 L 265.01 255.52 L 260.69 257.54 L 256.15 259.26 L 251.52 260.61 L 246.74 261.58 L 241.8 262.18 L 236.69 262.4 L 231.57 262.18 L 226.63 261.58 L 221.86 260.61 L 217.22 259.26 L 212.68 257.54 L 208.36 255.52 L 204.24 253.18 L 200.31 250.52 L 195.41 246.53 L 190.98 242.1 L 186.98 237.2 L 184.32 233.27 L 181.98 229.16 L 179.96 224.84 L 178.24 220.3 L 176.89 215.67 L 175.92 210.9 L 175.32 205.96 L 175.1 200.85 L 175.32 195.74 L 175.92 190.8 L 176.89 186.03 L 178.24 181.4 L 179.96 176.86 L 181.98 172.54 L 184.32 168.43 L 186.98 164.5 L 190.98 159.6 L 195.41 155.17 L 200.31 151.18 L 204.24 148.52 L 208.36 146.18 L 212.68 144.16 L 217.22 142.44 L 221.86 141.09 L 226.63 140.12 L 231.57 139.52 L 236.69 139.3 L 241.8 139.52 L 246.74 140.12 L 251.52 141.09 L 256.15 142.44 L 260.69 144.16 L 265.01 146.18 L 269.13 148.52 L 273.06 151.18 L 277.96 155.17 L 282.4 159.6 L 286.39 164.5 L 289.05 168.43 L 291.39 172.54 L 293.42 176.86 L 295.13 181.4 L 296.48 186.03 L 297.46 190.8 L 298.06 195.74 Z" fill="#ffdf80"/>
                </g>
              </g>
              <g id="Group_29">
                <g id="Graphic_30">
                  <rect x="165.25" y="121.25" width="72.26" height="160.84" fill="#ef7947"/>
                </g>
              </g>
            </g>
            <g id="Graphic_27">
              <title>椭圆形备份-29</title>
              <path d="M 228.33 132.65 L 223.09 132.87 L 218.04 133.49 L 213.14 134.49 L 208.39 135.87 L 203.75 137.62 L 199.32 139.7 L 195.1 142.1 L 191.07 144.82 L 187.26 147.84 L 183.72 151.12 L 180.44 154.66 L 177.42 158.47 L 174.7 162.49 L 172.3 166.71 L 170.22 171.13 L 168.46 175.77 L 167.08 180.52 L 166.08 185.41 L 165.47 190.47 L 165.25 195.7 L 165.47 200.94 L 166.08 205.99 L 167.08 210.88 L 168.46 215.63 L 170.22 220.27 L 172.3 224.7 L 174.7 228.91 L 177.42 232.94 L 180.44 236.75 L 183.72 240.28 L 187.26 243.56 L 191.07 246.59 L 195.1 249.31 L 199.32 251.7 L 203.75 253.78 L 208.39 255.54 L 213.14 256.92 L 218.04 257.91 L 223.09 258.53 L 228.33 258.75 L 233.57 258.53 L 238.63 257.91 L 243.52 256.92 L 248.27 255.54 L 252.92 253.78 L 257.35 251.7 L 261.56 249.31 L 265.59 246.59 L 269.4 243.56 L 272.94 240.28 L 276.22 236.75 L 279.25 232.94 L 281.97 228.91 L 284.37 224.7 L 286.44 220.27 L 288.2 215.63 L 289.58 210.88 L 290.58 205.99 L 291.2 200.94 L 291.42 195.7 L 291.2 190.47 L 290.58 185.41 L 289.58 180.52 L 288.2 175.77 L 286.44 171.13 L 284.37 166.71 L 281.97 162.49 L 279.25 158.47 L 276.22 154.66 L 272.94 151.12 L 269.4 147.84 L 265.59 144.82 L 261.56 142.1 L 257.35 139.7 L 252.92 137.62 L 248.27 135.87 L 243.52 134.49 L 238.63 133.49 L 233.57 132.87 Z M 228.33 135.65 L 233.32 135.86 L 238.14 136.45 L 242.8 137.4 L 247.32 138.71 L 251.75 140.39 L 255.97 142.37 L 259.98 144.65 L 263.82 147.24 L 268.6 151.13 L 272.93 155.46 L 276.83 160.24 L 279.42 164.07 L 281.7 168.09 L 283.68 172.3 L 285.36 176.72 L 286.67 181.24 L 287.62 185.9 L 288.21 190.71 L 288.42 195.7 L 288.21 200.69 L 287.62 205.5 L 286.67 210.16 L 285.36 214.68 L 283.68 219.1 L 281.7 223.32 L 279.42 227.33 L 276.83 231.17 L 272.93 235.94 L 268.6 240.27 L 263.82 244.16 L 259.98 246.76 L 255.97 249.04 L 251.75 251.01 L 247.32 252.69 L 242.8 254 L 238.14 254.95 L 233.32 255.54 L 228.33 255.75 L 223.34 255.54 L 218.53 254.95 L 213.86 254 L 209.34 252.69 L 204.91 251.01 L 200.7 249.04 L 196.68 246.76 L 192.85 244.16 L 188.06 240.27 L 183.74 235.94 L 179.84 231.17 L 177.25 227.33 L 174.96 223.32 L 172.98 219.1 L 171.31 214.68 L 169.99 210.16 L 169.04 205.5 L 168.46 200.69 L 168.25 195.7 L 168.46 190.71 L 169.04 185.9 L 169.99 181.24 L 171.31 176.72 L 172.98 172.3 L 174.96 168.09 L 177.25 164.07 L 179.84 160.24 L 183.74 155.46 L 188.06 151.13 L 192.85 147.24 L 196.68 144.65 L 200.7 142.37 L 204.91 140.39 L 209.34 138.71 L 213.86 137.4 L 218.53 136.45 L 223.34 135.86 Z" fill="#a5a5a5"/>
            </g>
          </g>
          <g id="Group_18">
            <g id="Group_20">
              <g id="Group_23">
                <g id="Graphic_24">
                  <path d="M 590.35 104.85 L 523.09 203.19 L 693.65 154.02 L 644.08 134.31 L 619.22 145.47 L 619.22 124.56 Z" fill="#ffdf80"/>
                </g>
              </g>
              <g id="Group_21">
                <g id="Graphic_22">
                  <path d="M 631.33 137.29 L 588.69 163.85 L 624.91 111.41 Z" fill="#a5a5a5"/>
                </g>
              </g>
            </g>
            <g id="Graphic_19">
              <title>蒙版备份</title>
              <path d="M 592.86 95.9 L 512.01 213.9 L 511.75 214.82 L 512.03 215.63 L 512.71 216.16 L 513.66 216.19 L 718.66 157.19 L 719.46 156.64 L 719.75 155.82 L 719.54 154.98 L 718.8 154.36 L 659.22 130.71 L 659.08 130.66 L 658.56 130.61 L 658.06 130.73 L 630.29 143.17 L 630.29 120.4 L 630.12 119.69 L 629.63 119.16 L 594.94 95.51 L 594.39 95.28 L 593.82 95.28 L 593.29 95.49 Z M 594.48 98.83 L 627.29 121.19 L 627.29 145.49 L 627.29 145.62 L 627.53 146.31 L 628.02 146.78 L 628.67 146.99 L 629.4 146.86 L 658.7 133.73 L 713.61 155.52 L 516.85 212.15 Z" fill="#c1c1c1"/>
            </g>
          </g>
          <g id="Group_10">
            <g id="Graphic_17">
              <title>路径-322</title>
              <path d="M 367.75 168.25 L 368.31 168.36 L 368.76 168.64 L 369.09 169.07 L 369.24 169.61 L 369.25 169.75 L 369.25 206.75 L 369.14 207.31 L 368.86 207.76 L 368.43 208.09 L 367.89 208.24 L 367.75 208.25 L 266.75 208.25 L 266.16 208.13 L 265.69 207.81 L 265.37 207.34 L 265.25 206.75 L 265.36 206.2 L 265.64 205.74 L 266.07 205.41 L 266.61 205.26 L 266.75 205.25 L 366.25 205.25 L 366.25 169.75 L 366.36 169.2 L 366.64 168.74 L 367.07 168.41 L 367.61 168.26 Z" fill="#d6d6d6"/>
            </g>
            <g id="Graphic_16">
              <title>矩形</title>
              <rect x="345.75" y="103.75" width="98" height="34" fill="#a0ffe7"/>
            </g>
            <g id="Graphic_15">
              <title>矩形</title>
              <path d="M 449.25 108.25 L 349.25 108.25 L 349.25 143.25 L 449.25 143.25 Z M 446.25 111.25 L 446.25 140.25 L 352.25 140.25 L 352.25 111.25 Z" fill="#a5a5a5"/>
            </g>
            <g id="Graphic_14">
              <title>矩形</title>
              <rect x="296.75" y="134.75" width="116" height="35" fill="#ffdf80"/>
            </g>
            <g id="Graphic_13">
              <title>矩形</title>
              <path d="M 421.25 146.25 L 305.25 146.25 L 305.25 179.25 L 421.25 179.25 Z M 418.25 149.25 L 418.25 176.25 L 308.25 176.25 L 308.25 149.25 Z" fill="#a5a5a5"/>
            </g>
            <g id="Graphic_12">
              <title>椭圆形</title>
              <path d="M 265.75 205.75 L 265.55 207.94 L 265 209.95 L 264.11 211.81 L 262.92 213.49 L 261.49 214.92 L 259.81 216.11 L 257.95 217 L 255.94 217.55 L 253.75 217.75 L 251.56 217.55 L 249.55 217 L 247.69 216.11 L 246.01 214.92 L 244.58 213.49 L 243.39 211.81 L 242.5 209.95 L 241.95 207.94 L 241.75 205.75 L 241.95 203.56 L 242.5 201.55 L 243.39 199.69 L 244.58 198.01 L 246.01 196.58 L 247.69 195.39 L 249.55 194.5 L 251.56 193.96 L 253.75 193.75 L 255.94 193.96 L 257.95 194.5 L 259.81 195.39 L 261.49 196.58 L 262.92 198.01 L 264.11 199.69 L 265 201.55 L 265.55 203.56 Z" fill="#ff6a6a"/>
            </g>
            <g id="Graphic_11">
              <title>椭圆形</title>
              <path d="M 258.75 198.25 L 256.47 198.46 L 254.38 199.03 L 252.44 199.96 L 250.69 201.2 L 249.2 202.69 L 247.96 204.44 L 247.03 206.38 L 246.46 208.47 L 246.25 210.75 L 246.46 213.03 L 247.03 215.12 L 247.96 217.06 L 249.2 218.81 L 250.69 220.3 L 252.44 221.54 L 254.38 222.47 L 256.47 223.04 L 258.75 223.25 L 261.03 223.04 L 263.12 222.47 L 265.06 221.54 L 266.81 220.3 L 268.3 218.81 L 269.54 217.06 L 270.47 215.12 L 271.04 213.03 L 271.25 210.75 L 271.04 208.47 L 270.47 206.38 L 269.54 204.44 L 268.3 202.69 L 266.81 201.2 L 265.06 199.96 L 263.12 199.03 L 261.03 198.46 Z M 258.75 201.25 L 260.48 201.41 L 262.07 201.85 L 263.54 202.55 L 265.47 204.03 L 266.95 205.96 L 267.66 207.43 L 268.09 209.02 L 268.25 210.75 L 268.09 212.49 L 267.66 214.07 L 266.95 215.55 L 265.47 217.47 L 263.54 218.95 L 262.07 219.66 L 260.48 220.09 L 258.75 220.25 L 257.02 220.09 L 255.43 219.66 L 253.96 218.95 L 252.03 217.47 L 250.55 215.55 L 249.84 214.07 L 249.41 212.49 L 249.25 210.75 L 249.41 209.02 L 249.84 207.43 L 250.55 205.96 L 252.03 204.03 L 253.96 202.55 L 255.43 201.85 L 257.02 201.41 Z" fill="black"/>
            </g>
          </g>
          <g id="Group_4">
            <g id="Graphic_9">
              <title>路径-296</title>
              <path d="M 70.25 351.25 L 70.81 351.36 L 71.26 351.64 L 71.59 352.07 L 71.74 352.61 L 71.75 352.75 L 71.75 375.25 L 143.25 375.25 L 143.81 375.36 L 144.26 375.64 L 144.59 376.07 L 144.74 376.61 L 144.75 376.75 L 144.64 377.31 L 144.36 377.76 L 143.93 378.09 L 143.39 378.24 L 143.25 378.25 L 68.75 378.25 L 68.75 352.75 L 68.87 352.16 L 69.19 351.69 L 69.66 351.37 Z" fill="#a5a5a5"/>
            </g>
            <g id="Graphic_8">
              <title>矩形</title>
              <rect x="37.25" y="322.75" width="65" height="32" fill="#a0ffe7"/>
            </g>
            <g id="Graphic_7">
              <title>矩形</title>
              <path d="M 106.25 316.75 L 106.25 349.75 L 40.25 349.75 L 40.25 316.75 Z M 103.25 319.75 L 43.25 319.75 L 43.25 346.75 L 103.25 346.75 Z" fill="#a5a5a5"/>
            </g>
            <g id="Graphic_6">
              <title>矩形备份</title>
              <path d="M 212.25 343.75 L 212.25 376.75 L 146.25 376.75 L 146.25 343.75 Z M 209.25 346.75 L 149.25 346.75 L 149.25 373.75 L 209.25 373.75 Z" fill="#a5a5a5"/>
            </g>
            <g id="Graphic_5">
              <title>矩形</title>
              <rect x="140.25" y="349.75" width="65" height="36" fill="#ff6a6a"/>
            </g>
          </g>
        </g>
      </g>
    </g>
  </g>
  <path d="M 721.966 477.475 L 36.387 477.475 C 16.627 477.475 0.624 467.356 0.624 454.863 L 0.624 21.372 C 0.624 8.878 16.627 -1.24 36.387 -1.24 L 721.966 -1.24 C 741.725 -1.24 757.727 8.878 757.727 21.372 L 757.727 454.863 C 757.727 467.356 741.725 477.475 721.966 477.475 Z" fill-opacity=".19" style="fill: rgb(171, 173, 198);"/>
</svg>