<?xml version="1.0" encoding="utf-8"?>
<svg version="1.1" viewBox="0 0 1421 1024" width="1421" height="1024" xmlns="http://www.w3.org/2000/svg">
  <g id="Canvas_1" fill-opacity="1" stroke-opacity="1" stroke-dasharray="none" fill="none" stroke="none">
    <title>Canvas 1</title>
    <g id="Canvas_1_Layer_1">
      <title>Layer 1</title>
      <g id="Group_2">
        <title>sillyvg_g_0</title>
        <g id="Graphic_21">
          <path d="M 715.69 41.29 L 33.03 41.29 C 14.79 41.29 0 56.08 0 74.32 L 0 664.04 C 0 682.28 14.79 697.07 33.03 697.07 L 715.69 697.07 C 733.93 697.07 748.72 682.28 748.72 664.04 L 748.72 74.32 C 748.72 56.08 733.93 41.29 715.69 41.29 Z" fill="#fbfbfb"/>
        </g>
        <g id="Graphic_20">
          <path d="M 732.2 41.29 L 16.52 41.29 C 7.39 41.29 0 48.68 0 57.81 L 0 101.37 C 0 110.49 7.39 117.89 16.52 117.89 L 732.2 117.89 C 741.33 117.89 748.72 110.49 748.72 101.37 L 748.72 57.81 C 748.72 48.68 741.33 41.29 732.2 41.29 Z" fill="#26c0a0"/>
        </g>
        <g id="Graphic_19">
          <path d="M 47.06 80.8 L 47.06 76.81 C 47.06 70.66 42.08 65.69 35.94 65.69 C 29.8 65.69 24.82 70.66 24.82 76.81 L 24.82 80.8 C 24.82 86.94 29.8 91.92 35.94 91.92 C 42.08 91.92 47.06 86.94 47.06 80.8 Z" fill="white"/>
        </g>
        <g id="Graphic_18">
          <path d="M 90.42 80.8 L 90.42 76.81 C 90.42 70.66 85.44 65.69 79.3 65.69 C 73.16 65.69 68.18 70.66 68.18 76.81 L 68.18 80.8 C 68.18 86.94 73.16 91.92 79.3 91.92 C 85.44 91.92 90.42 86.94 90.42 80.8 Z" fill="white"/>
        </g>
        <g id="Graphic_17">
          <path d="M 133.81 80.79 L 133.81 76.81 C 133.81 70.67 128.83 65.69 122.69 65.69 C 116.54 65.69 111.56 70.67 111.56 76.81 L 111.56 80.79 C 111.56 86.94 116.54 91.92 122.69 91.92 C 128.83 91.92 133.81 86.94 133.81 80.79 Z" fill="white"/>
        </g>
        <g id="Graphic_16">
          <path d="M 70.13 296.55 L 677.16 296.55 C 638.79 192.66 590.47 159.73 532.2 197.76 C 444.81 254.81 422.2 243.26 361.44 212.89 C 300.67 182.53 270.95 181.44 225.72 223.04 C 195.57 250.76 143.71 275.27 70.13 296.55 Z" fill="#ceecf7"/>
        </g>
        <g id="Graphic_15">
          <path d="M 70.13 296.55 L 677.16 296.55 C 649.78 272.08 626.35 251.17 606.87 233.82 C 577.64 207.81 493.65 109.9 406.25 166.95 C 318.86 224 304.73 256.96 243.96 226.6 C 183.2 196.24 167.19 202.98 131.21 233.82 C 107.23 254.39 86.87 275.3 70.13 296.55 Z" fill="#dadada"/>
        </g>
        <g id="Graphic_14">
          <path d="M 673.1 512.29 L 78 512.29 C 115.6251 384.21876 162.99468 343.62794 220.10875 390.51755 C 305.78966 460.83963 327.94514 446.5903 387.51984 409.1674 C 447.08474 371.74445 476.23 370.40087 520.5605 421.66635 C 550.1175 455.84744 600.96726 486.05943 673.1 512.29 Z" fill="#ceecf7"/>
        </g>
        <g id="Graphic_13">
          <path d="M 673.1 512.29 L 66.06 512.29 C 93.45 483.40714 116.88 458.7263 136.36 438.25923 C 165.58 407.54685 249.58 291.98 336.98 359.31826 C 424.37 426.6565 438.5 465.57224 499.26 429.7254 C 560.03 393.89034 576.04 401.8458 612.01 438.25923 C 636 462.52697 656.36 487.2078 673.1 512.29 Z" fill="#dde2ff"/>
        </g>
        <g id="Graphic_12">
          <rect x="66.06" y="553.29" width="181.68" height="33.03" fill="#d8e5ed"/>
        </g>
        <g id="Graphic_11">
          <rect x="302.8" y="553.29" width="181.67" height="33.03" fill="#d8e5ed"/>
        </g>
        <g id="Graphic_10">
          <path d="M 1354.32 189.94 L 330.32 189.94 C 293.84 189.94 264.26 219.51 264.26 256 L 264.26 916.65 C 264.26 953.13 293.84 982.71 330.32 982.71 L 1354.32 982.71 C 1390.81 982.71 1420.39 953.13 1420.39 916.65 L 1420.39 256 C 1420.39 219.51 1390.81 189.94 1354.32 189.94 Z" fill="white"/>
          <path d="M 1354.32 189.94 L 330.32 189.94 C 293.84 189.94 264.26 219.51 264.26 256 L 264.26 916.65 C 264.26 953.13 293.84 982.71 330.32 982.71 L 1354.32 982.71 C 1390.81 982.71 1420.39 953.13 1420.39 916.65 L 1420.39 256 C 1420.39 219.51 1390.81 189.94 1354.32 189.94 Z" stroke="#a5a5a5" stroke-linecap="butt" stroke-linejoin="round" stroke-width="1"/>
        </g>
        <g id="Graphic_9">
          <path d="M 396.7 685.42 L 396.7 675.2018 C 446.34 675.2018 484.95 656.5722 513.04 619.134 C 517.41 613.3048 521.79 607.11765 526.53 600.1209 C 531.5 592.7747 547.69 567.9409 550.1 564.3275 C 566.09 540.36293 578.03 525.5939 592.03 514.1315 C 609.42 499.8908 628.71 492.58725 651.74 492.58725 C 665.99 492.58725 678.77 495.3655 691.24 500.74304 C 701.15 505.0297 709.99 510.40726 722.62 519.29596 C 724.8 520.82996 732.27 526.15636 732.64 526.42055 C 748.03 537.329 757.9 543.3713 769.85 548.442 C 785.1 554.9189 801.34 558.2852 820.27 558.2852 C 839.16 558.2852 857.3 553.9474 875.81 545.6297 C 890.72 538.9397 904.73 530.36635 923.37 517.2506 C 927.19 514.57463 941.62 504.23716 945.03 501.8339 C 953.26 496.0473 959.68 491.7947 965.83 488.1557 C 981.38 478.9602 994.46 474.29 1007.3 474.29 L 1007.3 484.50817 C 996.73 484.50817 985.34 488.5733 971.28 496.88246 C 965.42 500.351 959.2 504.4758 951.18 510.1175 C 947.82 512.47816 933.39 522.81564 929.52 525.53424 C 910.38 538.9994 895.86 547.87955 880.21 554.9104 C 860.39 563.8076 840.77 568.5034 820.27 568.5034 C 799.89 568.5034 782.21 564.8388 765.65 557.80796 C 752.84 552.3708 742.42 545.99614 726.46 534.6786 C 726.07 534.39737 718.62 529.088 716.47 527.5796 C 704.38 519.06585 696.08 514.01217 686.98 510.0834 C 675.82 505.26835 664.48 502.8054 651.74 502.8054 C 631.26 502.8054 614.35 509.21414 598.79 521.9549 C 585.78 532.5992 574.38 546.712 558.91 569.8925 C 556.55 573.4292 540.33 598.3142 535.29 605.7456 C 530.47 612.87016 526 619.18514 521.52 625.1507 C 491.43 665.2649 449.65 685.42 396.7 685.42 Z" fill="#ff6e6e"/>
        </g>
        <g id="Graphic_8">
          <path d="M 396.39 624.5064 L 396.39 608.2627 C 432.48 608.2627 465.35 581.086 495.21 526.0959 C 500.43 516.5041 505.83 509.96056 511.53 506.3704 C 523.75 498.6753 536 504.6634 550.32 522.05866 C 555.76 528.66993 561.42 536.7308 569.03 548.436 C 570.35 550.45464 584.59 572.69996 589.02 579.4061 C 603.82 601.7869 615.92 617.2719 628.78 629.07194 C 644.51 643.5138 660.31 651.0463 677.06 651.0463 C 699.38 651.0463 716.41 639.61205 730.87 617.23125 C 742.13 599.79536 749.75 581.1131 764.1 539.5081 C 764.34 538.8036 764.67 537.8688 765.23 536.216 C 776.56 503.3899 782.3 488.3249 790.37 472.24376 C 801.17 450.73 813.05 435.82755 827.43 427.3467 C 846.26 416.224 865.48 417.30784 886.12 428.64726 C 901.74 437.22296 915.68 449.3888 938.69 472.71793 C 963.74 498.1063 966.02 500.3417 975.37 507.94195 C 987.9 518.1298 998.23 523.2102 1007.48 523.2102 L 1007.48 539.4539 C 996.24 539.4539 984.39 533.61484 970.49 522.3296 C 960.69 514.36356 958.39 512.1011 932.94 486.3063 C 910.59 463.6545 897.21 451.96286 882.62 443.95617 C 864.18 433.83603 847.49 432.8877 831.17 442.5201 C 818.76 449.8494 808.37 462.8823 798.66 482.2013 C 791.08 497.307 785.54 511.85724 774.5 543.87045 C 773.93 545.5097 773.6 546.45806 773.36 547.16254 C 758.52 590.1765 750.54 609.7529 738.29 628.7197 C 721.91 654.081 702.24 667.29 677.06 667.29 C 658.3 667.29 640.69 658.8904 623.43 643.0396 C 609.71 630.4538 597.03 614.22366 581.68 591.03 C 577.18 584.2155 562.9 561.90244 561.63 559.9516 C 554.29 548.66634 548.89 540.97125 543.84 534.83414 C 532.17 520.66324 523.45 516.3957 515.48 521.40837 C 511.5 523.9147 507.44 528.84605 503.25 536.5547 C 471.51 594.9859 435.81 624.5064 396.39 624.5064 Z" fill="#69dac8"/>
        </g>
        <g id="Graphic_7">
          <path d="M 386.87 305.55 L 582.73 305.55 C 586.59 305.55 589.72 308.68 589.72 312.54 L 589.72 368.5 C 589.72 372.37 586.59 375.5 582.73 375.5 L 386.87 375.5 C 383 375.5 379.87 372.37 379.87 368.5 L 379.87 312.54 C 379.87 308.68 383 305.55 386.87 305.55 Z M 666.67 305.55 L 862.53 305.55 C 866.39 305.55 869.53 308.68 869.53 312.54 L 869.53 368.5 C 869.53 372.37 866.39 375.5 862.53 375.5 L 666.67 375.5 C 662.8 375.5 659.67 372.37 659.67 368.5 L 659.67 312.54 C 659.67 308.68 662.8 305.55 666.67 305.55 Z" fill="#ff914d"/>
        </g>
        <g id="Graphic_6">
          <path d="M 419.96 827.58 L 1031.92 827.58 C 1035.76 827.58 1038.88 830.42 1038.88 833.93 L 1038.88 852.99 C 1038.88 856.5 1035.76 859.34 1031.92 859.34 L 419.96 859.34 C 416.12 859.34 413 856.5 413 852.99 L 413 833.93 C 413 830.42 416.12 827.58 419.96 827.58 Z M 419.96 732.29 L 823.3 732.29 C 827.14 732.29 830.25 735.14 830.25 738.64 L 830.25 757.7 C 830.25 761.21 827.14 764.05 823.3 764.05 L 419.96 764.05 C 416.12 764.05 413 761.21 413 757.7 L 413 738.64 C 413 735.14 416.12 732.29 419.96 732.29 Z" fill="#d8e5ed"/>
        </g>
        <g id="Graphic_5">
          <path d="M 1297.91 443.6806 L 1133.45 443.6806 C 1129.66 443.6806 1126.59 446.5206 1126.59 450.0306 L 1126.59 469.0906 C 1126.59 472.6006 1129.66 475.4406 1133.45 475.4406 L 1297.91 475.4406 C 1301.7 475.4406 1304.77 472.6006 1304.77 469.0906 L 1304.77 450.0306 C 1304.77 446.5206 1301.7 443.6806 1297.91 443.6806 Z M 1297.91 634.2506 L 1072.47 634.2506 C 1068.68 634.2506 1065.61 637.0906 1065.61 640.6006 L 1065.61 659.6606 C 1065.61 663.1706 1068.68 666.0106 1072.47 666.0106 L 1297.91 666.0106 C 1301.7 666.0106 1304.77 663.1706 1304.77 659.6606 L 1304.77 640.6006 C 1304.77 637.0906 1301.7 634.2506 1297.91 634.2506 Z M 1297.91 824.8206 L 1163.94 824.8206 C 1160.15 824.8206 1157.08 827.6606 1157.08 831.1706 L 1157.08 850.2306 C 1157.08 853.7406 1160.15 856.5806 1163.94 856.5806 L 1297.91 856.5806 C 1301.7 856.5806 1304.77 853.7406 1304.77 850.2306 L 1304.77 831.1706 C 1304.77 827.6606 1301.7 824.8206 1297.91 824.8206 Z M 1297.91 729.5306 L 964.8 729.5306 C 961.01 729.5306 957.94 732.3806 957.94 735.8906 L 957.94 754.9406 C 957.94 758.4506 961.01 761.2906 964.8 761.2906 L 1297.91 761.2906 C 1301.7 761.2906 1304.77 758.4506 1304.77 754.9406 L 1304.77 735.8906 C 1304.77 732.3806 1301.7 729.5306 1297.91 729.5306 Z M 1297.91 538.9606 L 1210.63 538.9606 C 1206.84 538.9606 1203.77 541.8106 1203.77 545.3106 L 1203.77 564.3706 C 1203.77 567.8806 1206.84 570.7206 1210.63 570.7206 L 1297.91 570.7206 C 1301.7 570.7206 1304.77 567.8806 1304.77 564.3706 L 1304.77 545.3106 C 1304.77 541.8106 1301.7 538.9606 1297.91 538.9606 Z" fill="#d0d6ff"/>
        </g>
      </g>
    </g>
  </g>
  <path d="M 1354.479 984.95 L 59.075 984.95 C 21.739 984.95 -8.498 964.993 -8.498 940.351 L -8.498 85.357 C -8.498 60.715 21.739 40.759 59.075 40.759 L 1354.479 40.759 C 1391.814 40.759 1422.05 60.715 1422.05 85.357 L 1422.05 940.351 C 1422.05 964.993 1391.814 984.95 1354.479 984.95 Z" fill-opacity=".19" style="fill: rgb(171, 173, 198);"/>
</svg>