<?xml version="1.0" encoding="utf-8"?>
<svg version="1.1" id="Layer_1" x="0px" y="0px" width="100%" viewBox="0 0 402 413" enable-background="new 0 0 402 413" xmlns="http://www.w3.org/2000/svg">
  <path fill="#EA4236" opacity="1.000000" stroke="none" d=" M61.748268,351.950256 C49.737911,340.609680 40.065365,327.346893 31.320847,313.489685 C21.450716,297.848694 14.040442,281.070892 9.826125,262.879974 C5.418330,243.853943 4.882288,224.915588 7.852314,205.620850 C11.377417,182.720047 20.370148,162.157211 33.037003,143.079880 C45.615864,124.135078 62.313828,109.614525 82.063591,98.392906 C99.285851,88.607391 117.797050,82.344353 137.159515,79.280518 C152.878647,76.793205 168.795090,76.391632 184.832001,78.781670 C201.315735,81.238289 216.989975,85.628258 231.865341,93.002647 C234.777451,94.446312 237.522171,96.227623 240.814453,98.305817 C245.301041,101.828377 249.317291,104.898331 252.883179,108.005013 C242.275360,107.153992 232.117889,106.266235 221.635803,105.302315 C220.870407,105.264915 220.429596,105.303688 219.751083,105.251282 C219.345001,105.181602 219.176636,105.203102 218.560822,105.131409 C215.075104,105.140137 212.036835,105.242050 208.591156,105.266556 C205.792984,105.426056 203.402252,105.662964 200.632446,105.845352 C199.498840,105.893974 198.744308,105.997116 197.561859,106.050293 C190.940140,107.024429 184.474518,107.249123 178.610489,109.243073 C167.244766,113.107796 156.197433,117.919189 145.085266,122.501022 C144.120865,122.898659 140.406891,123.564919 144.187927,126.146553 C145.225983,127.282387 146.130402,128.135010 147.143646,129.310333 C156.666870,141.040665 158.213364,154.030609 154.735001,168.218246 C154.308395,169.293320 154.112289,170.134903 153.665604,171.205872 C149.782852,176.326523 146.870834,182.044617 142.382950,185.953415 C129.130844,197.495590 113.989273,198.306366 97.945084,191.488922 C97.226341,191.046310 96.683777,190.836411 95.929726,190.379089 C91.539825,186.671921 87.361412,183.212173 83.002922,179.603317 C74.170021,188.830948 65.999634,199.015915 60.110252,211.284607 C59.628044,212.375717 59.331749,213.191208 58.790169,214.263763 C52.302197,227.996796 48.982670,242.181076 48.146225,257.383484 C48.072891,258.850739 48.106457,259.927429 48.030609,261.460510 C48.001759,267.616302 48.082317,273.315735 48.113811,279.257935 C48.064747,279.500671 48.248417,279.960632 48.210896,280.395203 C48.917610,287.186768 49.661846,293.543732 50.380867,300.318146 C50.614296,301.819031 50.872940,302.902466 51.094910,304.397400 C52.640869,311.980316 54.223499,319.151794 55.824619,326.773132 C56.213055,328.981476 56.536831,330.751190 56.961189,332.496429 C58.538967,338.985413 60.149826,345.466309 61.748268,351.950256 z"/>
  <path fill="#FBBB05" opacity="1.000000" stroke="none" d=" M61.917557,352.268494 C60.149826,345.466309 58.538967,338.985413 56.961189,332.496429 C56.536831,330.751190 56.213055,328.981476 56.138649,327.010986 C63.585884,331.293579 70.737579,335.788147 78.062790,340.507141 C78.784119,340.848389 79.331940,340.965179 80.117813,341.345398 C93.978767,347.506104 108.266449,350.567322 123.476799,351.723541 C127.945099,351.947296 131.963593,352.058746 136.369537,352.298950 C152.288757,353.175232 167.700241,351.968079 183.672897,350.310059 C178.523865,339.895111 178.454056,330.019012 181.924286,319.712219 C182.402451,318.621765 182.714447,317.815918 183.285950,316.794952 C190.719421,304.021271 201.769363,298.176575 216.369537,297.937195 C217.492859,298.015228 218.247559,297.999084 219.353943,298.134888 C225.760284,301.116089 232.375854,303.155853 237.735153,306.963776 C245.344513,312.370422 248.332947,321.001556 249.898804,330.434296 C249.846085,332.815094 249.846085,334.756592 249.846085,337.593536 C256.464417,335.292511 262.439819,333.215027 268.765808,331.116516 C271.083740,330.352692 273.051056,329.609894 275.275269,328.859283 C275.720306,328.574554 275.908478,328.297607 276.065582,328.017761 C276.034515,328.014862 276.056122,328.073425 276.382202,328.059387 C277.519562,327.834564 278.330841,327.623810 279.516357,327.332703 C294.277283,320.557831 308.663971,313.863312 323.377991,307.107086 C325.161285,306.096985 326.617188,305.148590 328.419373,304.120483 C334.143433,300.344666 339.521240,296.648499 345.209503,292.873108 C346.330170,292.102081 347.140350,291.410309 348.234497,290.617371 C349.711578,289.457428 350.904663,288.398651 352.401550,287.217957 C353.806061,286.072876 354.906708,285.049713 356.315491,283.915253 C357.792633,282.647827 358.961670,281.491730 360.407715,280.208618 C360.821533,279.724426 360.958405,279.367249 361.054626,279.026917 C361.014008,279.043793 361.051514,279.123352 361.393372,279.083679 C365.115875,275.646576 368.833862,272.519043 371.810272,268.798309 C379.098999,259.686981 386.045319,250.301727 393.129425,241.026688 C390.677582,248.882858 388.747223,256.949646 385.675293,264.555389 C376.741394,286.674835 364.128601,306.792572 349.593201,325.547180 C338.124207,340.345276 325.453674,354.137146 310.725616,366.032043 C298.383514,375.999969 285.585449,385.113129 271.395325,392.105469 C255.760529,399.809662 239.416107,405.719269 221.867767,406.916748 C205.887726,408.007172 189.767288,409.709839 173.866531,408.687775 C147.836624,407.014618 123.449547,398.896393 100.801292,385.517212 C87.501389,377.660370 75.879440,367.995605 65.369637,356.834320 C64.148720,355.537720 63.175114,354.008240 61.917557,352.268494 z"/>
  <path fill="#4385F4" opacity="1.000000" stroke="none" d=" M393.427460,240.781158 C386.045319,250.301727 379.098999,259.686981 371.810272,268.798309 C368.833862,272.519043 365.115875,275.646576 361.196777,278.733704 C362.802460,272.631897 364.946594,266.840363 367.301880,260.764587 C367.668579,259.320679 367.824219,258.161011 368.175476,256.649597 C370.595154,245.104813 370.233734,234.007904 367.130737,222.607727 C364.227509,214.055023 361.326630,205.907471 358.327881,197.411331 C355.329407,191.761902 352.428802,186.461060 349.451294,181.019653 C345.822510,184.344025 342.807129,187.106476 339.460632,189.957977 C336.861938,191.250671 334.594330,192.454315 331.952698,193.693726 C323.757141,196.094482 315.962463,195.906265 307.984558,193.325470 C307.272644,193.057800 306.767487,192.948090 306.017731,192.591064 C292.946869,186.265091 286.594482,175.743301 285.024261,161.600189 C285.050232,160.138641 284.995911,159.071426 285.057739,157.626465 C286.093231,149.666199 289.094788,142.966064 294.017303,136.765289 C295.000641,135.758896 295.732758,134.960770 296.746948,134.061737 C300.484497,131.639557 297.355347,130.672256 295.966736,129.940659 C283.343445,123.290161 270.648407,116.775841 257.690369,110.060196 C256.601074,109.615089 255.795685,109.331459 254.807343,108.879593 C254.194092,108.463661 253.763824,108.215973 253.333542,107.968285 C249.317291,104.898331 245.301041,101.828377 241.136108,98.462555 C257.653778,92.637962 274.822174,89.734818 292.290039,91.149918 C317.153107,93.164108 339.095001,102.242104 357.972229,119.221077 C376.455994,135.846146 388.741333,155.805374 394.300446,179.835770 C397.407806,193.267929 399.599182,206.907349 397.030426,220.806015 C395.818695,227.362213 394.820465,233.957855 393.427460,240.781158 z"/>
  <path fill="#34A853" opacity="1.000000" stroke="none" d=" M307.297668,52.307281 C296.889191,56.339027 287.041199,61.175972 276.632904,63.727463 C264.719727,66.647865 252.377274,65.782265 240.347488,62.681458 C251.718201,22.248066 324.594788,-9.459048 356.614563,11.864563 C341.833313,27.130579 326.463745,41.747971 307.297668,52.307281 z"/>
  <path fill="#FEFEFF" opacity="1.000000" stroke="none" d=" M332.326691,193.657959 C334.594330,192.454315 336.861938,191.250671 339.710510,190.232391 C342.348969,199.903992 351.081726,203.312729 357.112000,210.506760 C357.649902,205.287628 358.037811,201.523758 358.425720,197.759903 C361.326630,205.907471 364.227509,214.055023 366.783325,222.541321 C365.245392,222.473267 364.052551,222.066483 362.469330,221.526596 C362.283386,223.227753 362.078491,224.495544 362.016479,225.770279 C361.670502,232.879959 361.604095,240.013702 360.957886,247.095016 C360.447876,252.684021 363.476196,255.237106 367.979858,257.001312 C367.824219,258.161011 367.668579,259.320679 366.989807,260.613892 C364.674835,259.678070 362.882996,258.608765 360.242981,257.033295 C358.760010,266.484161 357.383698,275.255371 356.007355,284.026550 C354.906708,285.049713 353.806061,286.072876 352.383728,286.769897 C353.104034,280.060852 353.268707,273.369171 355.382599,267.363556 C359.037018,256.981262 355.284088,250.711487 346.456696,245.744263 C343.102875,243.857056 341.501801,243.447403 340.760284,247.827499 C338.793030,259.447662 336.735626,271.053925 334.551331,282.635040 C334.015259,285.477448 335.116180,286.484375 337.634644,287.188446 C341.129120,288.165405 344.516998,289.523590 347.950531,290.718536 C347.140350,291.410309 346.330170,292.102081 344.877991,292.722900 C341.718842,291.909943 339.230743,290.759064 336.673706,290.577118 C335.103760,290.465424 332.527191,291.418213 331.968414,292.620636 C330.262665,296.291199 329.315460,300.314270 328.073090,304.200165 C326.617188,305.148590 325.161285,306.096985 323.432678,306.733215 C324.783142,302.075836 326.306671,297.689911 328.061401,293.398499 C329.425903,290.061493 328.708649,288.110870 325.067902,287.150787 C316.894958,284.995636 308.801880,282.522980 300.583191,280.571625 C299.280670,280.262360 296.551605,281.624023 296.073730,282.839081 C290.256927,297.629059 284.738220,312.536285 279.142120,327.413055 C278.330841,327.623810 277.519562,327.834564 276.375671,327.656189 C276.680359,324.878113 277.119690,322.414398 277.988190,320.112640 C282.559509,307.996948 287.255920,295.928528 291.867767,283.828003 C292.833618,281.293823 293.965088,278.620331 289.950317,277.510284 C271.547607,272.422150 253.156158,267.293091 234.744827,262.236450 C232.141327,261.521423 230.313385,262.386719 229.428391,265.225525 C226.018051,276.164948 222.487793,287.066986 219.002243,297.982941 C218.247559,297.999084 217.492859,298.015228 216.397247,297.559937 C219.404251,286.450012 222.700806,275.794922 226.133041,265.183716 C227.098724,262.198181 227.102051,260.078217 223.473495,259.081879 C199.074539,252.382431 174.687729,245.638153 150.322418,238.817581 C147.180481,237.938065 145.698547,238.774933 145.036423,241.979584 C141.232071,260.392731 137.387878,278.798248 133.400284,297.172333 C132.570023,300.998016 134.000854,302.665405 137.500961,303.672211 C152.697571,308.043579 167.854843,312.551666 183.026428,317.010071 C182.714447,317.815918 182.402451,318.621765 181.552155,319.682129 C166.718262,315.690308 152.358841,311.642792 138.163010,307.085632 C133.438461,305.568970 131.788223,306.889069 131.394241,311.383545 C130.643814,319.944061 130.287491,328.580109 128.840744,337.026031 C127.616791,344.171356 127.382195,350.029877 135.982101,352.170166 C131.963593,352.058746 127.945099,351.947296 123.372726,351.416504 C122.131744,350.302216 121.557617,349.409668 120.740318,348.942352 C110.486176,343.079041 100.207832,337.257751 89.910103,331.471222 C86.706612,329.671112 83.426193,328.007904 79.879761,326.121796 C79.879761,331.713593 79.879761,336.397766 79.879761,341.081940 C79.331940,340.965179 78.784119,340.848389 78.060036,340.078064 C77.555107,336.956085 77.359932,334.460480 76.864822,332.025879 C76.208900,328.800476 76.364784,324.474091 74.341049,322.630676 C67.018936,315.960876 58.930679,310.132111 51.131592,303.985931 C50.872940,302.902466 50.614296,301.819031 50.763161,300.391113 C58.730350,305.604706 66.290031,311.162781 74.999054,317.565857 C74.999054,308.961731 74.148766,301.871552 75.179848,295.066437 C77.193535,281.775940 72.754318,272.747681 60.311958,267.480438 C56.096268,265.695801 52.188499,263.183777 48.140015,261.004120 C48.106457,259.927429 48.072891,258.850739 48.499840,257.412537 C56.000134,261.383453 63.028412,265.734741 70.088516,270.033752 C71.675301,271.000000 73.373238,271.783691 75.568375,272.940399 C78.439499,256.417053 81.172035,240.751755 83.875092,225.081360 C84.381454,222.145844 83.148468,220.322449 80.215614,219.567307 C73.146927,217.747314 66.094467,215.864288 59.035461,214.006699 C59.331749,213.191208 59.628044,212.375717 60.494194,211.294724 C67.775238,212.775452 74.524536,214.390472 81.181320,216.323975 C84.447266,217.272598 85.999817,216.309052 87.161865,213.201614 C89.997871,205.617844 93.128944,198.144394 96.141220,190.626511 C96.683777,190.836411 97.226341,191.046310 97.915787,191.900696 C95.141571,200.968689 92.220467,209.392181 89.303658,217.803299 C89.943138,218.264465 90.296150,218.687973 90.733269,218.809875 C107.094070,223.372070 123.473328,227.868408 139.821213,232.476135 C143.170303,233.420090 144.268005,231.648758 145.187653,228.979736 C150.451340,213.703613 155.836548,198.469269 161.079773,183.186203 C164.661026,172.747482 164.587555,172.722275 153.916183,170.976501 C154.112289,170.134903 154.308395,169.293320 155.159927,168.223175 C156.808273,168.067001 157.886383,167.912781 158.780151,168.248840 C164.208328,170.289795 167.009369,167.930969 169.102737,162.983444 C172.141068,155.802597 175.778595,148.877365 179.053085,141.793442 C180.694031,138.243500 182.097168,134.583649 184.257309,129.421448 C171.106033,129.268173 159.070419,129.127899 147.034805,128.987640 C146.130402,128.135010 145.225983,127.282387 144.523560,125.951508 C145.870056,125.328278 147.018372,125.032837 148.158493,125.061623 C159.285126,125.342468 170.414734,125.576126 181.533524,126.054771 C185.178940,126.211708 187.460800,124.894432 189.150131,121.731964 C191.969742,116.453590 195.030518,111.304039 197.989777,106.100258 C198.744308,105.997116 199.498840,105.893974 200.565399,106.205650 C198.027222,111.868690 195.184479,117.120956 192.323929,122.363525 C190.737839,125.270386 190.836319,127.244438 194.670822,128.180771 C212.122131,132.442139 229.551102,136.797577 246.954239,141.251450 C250.528778,142.166290 251.821487,141.026688 252.037003,137.490311 C252.329254,132.695038 252.655502,127.859795 253.564972,123.157310 C254.309143,119.309570 253.111984,117.698288 249.433594,116.824112 C237.620880,114.016823 225.849716,111.029266 214.101334,107.962570 C212.295624,107.491211 210.694382,106.236435 208.998581,105.343979 C212.036835,105.242050 215.075104,105.140137 218.660492,105.234070 C219.207611,105.429924 219.611160,105.520798 219.611160,105.520798 C219.611160,105.520798 219.988800,105.342453 219.988800,105.342453 C220.429596,105.303688 220.870407,105.264915 221.807098,105.597198 C231.850067,108.547089 241.365372,111.253662 250.960587,113.638809 C254.554535,114.532181 254.972504,111.756477 254.990311,109.047836 C255.795685,109.331459 256.601074,109.615089 257.694031,110.456772 C258.914734,113.129646 259.277191,116.371964 260.872101,117.179161 C272.597992,123.113754 284.570221,128.561523 296.464874,134.162643 C295.732758,134.960770 295.000641,135.758896 293.681274,136.687653 C281.462463,131.161819 269.830933,125.505348 257.394806,119.457611 C256.496643,127.203865 255.555634,133.564743 255.163605,139.959290 C255.068024,141.518311 256.365295,143.977585 257.718567,144.678650 C266.687012,149.324905 275.845184,153.604980 284.941589,158.004227 C284.995911,159.071426 285.050232,160.138641 284.674438,161.529816 C274.529938,156.965454 264.815552,152.077118 254.784698,147.029526 C254.344986,148.618149 254.055328,149.384506 253.925156,150.177048 C251.988724,161.966217 250.109253,173.764893 248.130310,185.546860 C247.568100,188.893997 249.421158,190.367126 252.075378,191.554611 C264.360107,197.050705 276.612000,202.620163 288.894531,208.121124 C293.928467,210.375671 299.010132,212.523743 304.998779,215.123398 C304.998779,210.426758 304.834473,206.957352 305.044159,203.510696 C305.261292,199.941757 305.841156,196.394897 306.262329,192.838379 C306.767487,192.948090 307.272644,193.057800 307.944702,193.829285 C308.076294,200.486862 307.724243,206.506241 308.168182,212.466354 C308.335815,214.717072 309.808472,217.575317 311.610596,218.870361 C317.545868,223.135651 323.886749,226.840424 330.108368,230.701584 C332.713135,232.318100 335.409637,233.786774 338.998657,235.863144 C338.998657,224.660965 338.722351,214.544479 339.108734,204.453339 C339.319611,198.946167 337.334381,195.533905 332.326691,193.657959 M154.996460,210.520157 C152.389923,218.360153 149.783386,226.200150 147.009262,234.544235 C174.417526,242.118637 201.107330,249.494476 227.698959,256.843201 C228.272598,256.038391 228.709976,255.680420 228.812912,255.243622 C233.504303,235.335648 238.173004,215.422333 242.825409,195.505188 C243.585815,192.249847 241.695114,191.143158 238.897125,190.441910 C216.950089,184.941452 195.000595,179.446960 173.111755,173.721634 C169.040497,172.656754 167.419189,173.944687 166.209610,177.653656 C162.701935,188.409302 158.914307,199.073639 154.996460,210.520157 M246.294571,196.045624 C241.871170,214.808731 237.568253,233.601654 232.937103,252.313339 C231.821320,256.821594 233.267136,258.559509 237.440109,259.679474 C255.097107,264.418335 272.716095,269.303223 290.297455,274.315613 C293.630127,275.265747 294.932587,274.160217 295.466949,271.109436 C296.497955,265.223236 297.584991,259.346893 298.640594,253.464951 C300.371002,243.822800 302.177246,234.193069 303.768402,224.527939 C304.211975,221.833725 304.829468,218.849487 301.273773,217.262863 C285.038483,210.018417 268.865051,202.634094 252.580612,195.502808 C250.905960,194.769440 248.640259,195.385696 246.294571,196.045624 M120.991692,296.496460 C122.035103,297.017334 123.136246,297.448364 124.111664,298.075073 C127.825401,300.461182 129.889511,299.596405 130.488831,295.128998 C130.797531,292.827881 131.453949,290.574097 131.936646,288.295441 C135.178192,272.992737 138.448212,257.695923 141.623520,242.379471 C142.194916,239.623337 142.873825,236.791626 138.755173,235.681549 C123.324799,231.522675 107.930992,227.225845 92.553909,222.873230 C89.082870,221.890747 87.501816,222.474777 86.865532,226.470367 C84.564606,240.919189 81.926437,255.315765 79.280533,269.707214 C78.582336,273.504791 79.450272,275.889496 83.186058,277.684601 C95.648567,283.673004 107.958336,289.979248 120.991692,296.496460 M247.287598,169.830765 C248.424530,162.954895 249.734741,156.099411 250.548416,149.185501 C250.706284,147.844025 249.187653,145.266052 248.003815,144.961182 C229.007278,140.068726 209.952454,135.397781 190.857147,130.904831 C189.662094,130.623672 187.276749,131.858994 186.707520,133.011978 C181.410904,143.740585 176.471161,154.644745 171.241684,165.407501 C169.694565,168.591629 170.657471,169.942520 173.772202,170.726715 C195.699982,176.247391 217.624039,181.783310 239.529068,187.393311 C242.765945,188.222275 244.650604,187.624176 245.101959,183.979507 C245.652313,179.535614 246.443222,175.121536 247.287598,169.830765 M82.951523,281.476135 C81.619926,281.066406 80.288330,280.656708 78.816177,280.203735 C78.449478,281.434387 78.089752,282.060883 78.104355,282.678497 C78.390900,294.795074 78.622803,306.915131 79.174431,319.020355 C79.238686,320.430511 80.836586,322.239410 82.205254,323.045990 C91.651825,328.613190 101.216568,333.980591 110.764122,339.375397 C115.153320,341.855499 119.589493,344.252502 124.657555,347.047424 C125.848854,334.294128 126.398392,322.510590 128.257553,310.937439 C129.221924,304.934357 127.058128,302.735352 122.244614,300.511505 C109.264297,294.514526 96.487740,288.076569 82.951523,281.476135 M336.287720,253.800232 C336.736389,251.352646 337.090698,248.883072 337.654358,246.462250 C338.677643,242.067505 337.654694,238.909958 333.409058,236.516068 C326.325867,232.522141 319.486755,228.086853 312.626801,223.709000 C309.223907,221.537323 307.530334,221.525421 306.786255,226.241211 C304.821075,238.696167 302.457916,251.090210 300.133698,263.486115 C297.791962,275.975189 297.721710,275.988586 309.931244,279.485596 C316.576508,281.388916 323.251129,283.189606 330.654266,285.242249 C332.575592,274.488495 334.348053,264.568085 336.287720,253.800232 M347.492401,205.996475 C346.087799,204.789444 344.683167,203.582428 342.379517,201.602844 C342.199036,204.527313 342.021423,206.127762 342.014923,207.728897 C341.984497,215.213669 341.896790,222.700806 342.053741,230.182404 C342.114716,233.086914 341.722504,236.991837 343.356262,238.676056 C347.346161,242.789139 352.398071,245.872070 357.484772,249.719421 C358.046906,241.852844 358.290009,235.223953 359.050079,228.654877 C359.940521,220.958847 358.137634,214.605438 351.543365,209.989258 C350.201508,209.049881 349.167114,207.671219 347.492401,205.996475 z"/>
  <path fill="#F2F7FD" opacity="1.000000" stroke="none" d=" M153.665604,171.205872 C164.587555,172.722275 164.661026,172.747482 161.079773,183.186203 C155.836548,198.469269 150.451340,213.703613 145.187653,228.979736 C144.268005,231.648758 143.170303,233.420090 139.821213,232.476135 C123.473328,227.868408 107.094070,223.372070 90.733269,218.809875 C90.296150,218.687973 89.943138,218.264465 89.303658,217.803299 C92.220467,209.392181 95.141571,200.968689 98.091965,192.133408 C113.989273,198.306366 129.130844,197.495590 142.382950,185.953415 C146.870834,182.044617 149.782852,176.326523 153.665604,171.205872 z"/>
  <path fill="#F2F7FD" opacity="1.000000" stroke="none" d=" M58.790169,214.263763 C66.094467,215.864288 73.146927,217.747314 80.215614,219.567307 C83.148468,220.322449 84.381454,222.145844 83.875092,225.081360 C81.172035,240.751755 78.439499,256.417053 75.568375,272.940399 C73.373238,271.783691 71.675301,271.000000 70.088516,270.033752 C63.028412,265.734741 56.000134,261.383453 48.606735,257.022003 C48.982670,242.181076 52.302197,227.996796 58.790169,214.263763 z"/>
  <path fill="#F2F8FE" opacity="1.000000" stroke="none" d=" M208.591156,105.266563 C210.694382,106.236435 212.295624,107.491211 214.101334,107.962570 C225.849716,111.029266 237.620880,114.016823 249.433594,116.824112 C253.111984,117.698288 254.309143,119.309570 253.564972,123.157310 C252.655502,127.859795 252.329254,132.695038 252.037003,137.490311 C251.821487,141.026688 250.528778,142.166290 246.954239,141.251450 C229.551102,136.797577 212.122131,132.442139 194.670822,128.180771 C190.836319,127.244438 190.737839,125.270386 192.323929,122.363525 C195.184479,117.120956 198.027222,111.868690 200.944458,106.260178 C203.402252,105.662964 205.792984,105.426056 208.591156,105.266563 z"/>
  <path fill="#F2F7FD" opacity="1.000000" stroke="none" d=" M48.030605,261.460510 C52.188499,263.183777 56.096268,265.695801 60.311958,267.480438 C72.754318,272.747681 77.193535,281.775940 75.179848,295.066437 C74.148766,301.871552 74.999054,308.961731 74.999054,317.565857 C66.290031,311.162781 58.730350,305.604706 50.788376,299.973694 C49.661846,293.543732 48.917610,287.186768 48.276344,280.279144 C48.451504,279.454163 48.379360,279.216400 48.162880,279.015167 C48.082317,273.315735 48.001759,267.616302 48.030605,261.460510 z"/>
  <path fill="#F2F6FC" opacity="1.000000" stroke="none" d=" M147.143646,129.310333 C159.070419,129.127899 171.106033,129.268173 184.257309,129.421448 C182.097168,134.583649 180.694031,138.243500 179.053085,141.793442 C175.778595,148.877365 172.141068,155.802597 169.102737,162.983444 C167.009369,167.930969 164.208328,170.289795 158.780151,168.248840 C157.886383,167.912781 156.808273,168.067001 155.390427,167.989716 C158.213364,154.030609 156.666870,141.040665 147.143646,129.310333 z"/>
  <path fill="#F2F6FC" opacity="1.000000" stroke="none" d=" M95.929733,190.379089 C93.128944,198.144394 89.997871,205.617844 87.161865,213.201614 C85.999817,216.309052 84.447266,217.272598 81.181320,216.323975 C74.524536,214.390472 67.775238,212.775452 60.680111,211.019104 C65.999634,199.015915 74.170021,188.830948 83.002922,179.603317 C87.361412,183.212173 91.539825,186.671921 95.929733,190.379089 z"/>
  <path fill="#F2F5FB" opacity="1.000000" stroke="none" d=" M197.561859,106.050293 C195.030518,111.304039 191.969742,116.453590 189.150131,121.731964 C187.460800,124.894432 185.178940,126.211708 181.533524,126.054771 C170.414734,125.576126 159.285126,125.342468 148.158493,125.061623 C147.018372,125.032837 145.870056,125.328278 144.389923,125.668304 C140.406891,123.564919 144.120865,122.898659 145.085266,122.501022 C156.197433,117.919189 167.244766,113.107796 178.610489,109.243073 C184.474518,107.249123 190.940140,107.024429 197.561859,106.050293 z"/>
  <path fill="#F2F6FB" opacity="1.000000" stroke="none" d=" M51.094913,304.397400 C58.930679,310.132111 67.018936,315.960876 74.341049,322.630676 C76.364784,324.474091 76.208900,328.800476 76.864822,332.025879 C77.359932,334.460480 77.555107,336.956085 77.886520,339.853638 C70.737579,335.788147 63.585884,331.293579 56.120163,326.561127 C54.223499,319.151794 52.640869,311.980316 51.094913,304.397400 z"/>
  <path fill="#F2EFF4" opacity="1.000000" stroke="none" d=" M254.807343,108.879593 C254.972504,111.756477 254.554535,114.532181 250.960587,113.638809 C241.365372,111.253662 231.850067,108.547089 222.131714,105.673370 C232.117889,106.266235 242.275360,107.153992 252.883179,108.005013 C253.763824,108.215973 254.194092,108.463661 254.807343,108.879593 z"/>
  <path fill="#FEFEFF" opacity="1.000000" stroke="none" d=" M48.113815,279.257935 C48.379360,279.216400 48.451504,279.454163 48.313866,279.844574 C48.248417,279.960632 48.064747,279.500671 48.113815,279.257935 z"/>
  <path fill="#F2EFF4" opacity="1.000000" stroke="none" d=" M219.751083,105.251282 C219.988800,105.342453 219.611160,105.520798 219.611160,105.520798 C219.611160,105.520798 219.207611,105.429924 219.107941,105.327263 C219.176636,105.203102 219.345001,105.181602 219.751083,105.251282 z"/>
  <path fill="#F2F8FE" opacity="1.000000" stroke="none" d=" M183.285934,316.794952 C167.854843,312.551666 152.697571,308.043579 137.500961,303.672211 C134.000854,302.665405 132.570023,300.998016 133.400284,297.172333 C137.387878,278.798248 141.232071,260.392731 145.036423,241.979584 C145.698547,238.774933 147.180481,237.938065 150.322418,238.817581 C174.687729,245.638153 199.074539,252.382431 223.473495,259.081879 C227.102051,260.078217 227.098724,262.198181 226.133041,265.183716 C222.700806,275.794922 219.404251,286.450012 216.028610,297.465759 C201.769363,298.176575 190.719421,304.021271 183.285934,316.794952 z"/>
  <path fill="#F2F8FE" opacity="1.000000" stroke="none" d=" M219.353943,298.134888 C222.487793,287.066986 226.018051,276.164948 229.428391,265.225525 C230.313385,262.386719 232.141327,261.521423 234.744827,262.236450 C253.156158,267.293091 271.547607,272.422150 289.950317,277.510284 C293.965088,278.620331 292.833618,281.293823 291.867767,283.828003 C287.255920,295.928528 282.559509,307.996948 277.988190,320.112640 C277.119690,322.414398 276.680359,324.878113 276.049561,327.670258 C276.056122,328.073425 276.034515,328.014862 275.867645,328.135376 C275.444794,328.427856 275.217346,328.631561 275.018372,328.867065 C273.051056,329.609894 271.083740,330.352692 268.284546,331.085968 C261.618927,330.715973 255.785233,330.355499 249.951523,329.994995 C248.332947,321.001556 245.344513,312.370422 237.735153,306.963776 C232.375854,303.155853 225.760284,301.116089 219.353943,298.134888 z"/>
  <path fill="#F2F8FD" opacity="1.000000" stroke="none" d=" M136.369537,352.298950 C127.382195,350.029877 127.616791,344.171356 128.840744,337.026031 C130.287491,328.580109 130.643814,319.944061 131.394241,311.383545 C131.788223,306.889069 133.438461,305.568970 138.163010,307.085632 C152.358841,311.642792 166.718262,315.690308 181.385986,319.966736 C178.454056,330.019012 178.523865,339.895111 183.672897,350.310059 C167.700241,351.968079 152.288757,353.175232 136.369537,352.298950 z"/>
  <path fill="#F2F8FD" opacity="1.000000" stroke="none" d=" M279.516357,327.332703 C284.738220,312.536285 290.256927,297.629059 296.073730,282.839081 C296.551605,281.624023 299.280670,280.262360 300.583191,280.571625 C308.801880,282.522980 316.894958,284.995636 325.067902,287.150787 C328.708649,288.110870 329.425903,290.061493 328.061401,293.398499 C326.306671,297.689911 324.783142,302.075836 323.105347,306.794922 C308.663971,313.863312 294.277283,320.557831 279.516357,327.332703 z"/>
  <path fill="#F2F8FE" opacity="1.000000" stroke="none" d=" M348.234497,290.617371 C344.516998,289.523590 341.129120,288.165405 337.634644,287.188446 C335.116180,286.484375 334.015259,285.477448 334.551331,282.635040 C336.735626,271.053925 338.793030,259.447662 340.760284,247.827499 C341.501801,243.447403 343.102875,243.857056 346.456696,245.744263 C355.284088,250.711487 359.037018,256.981262 355.382599,267.363556 C353.268707,273.369171 353.104034,280.060852 352.079926,286.891846 C350.904663,288.398651 349.711578,289.457428 348.234497,290.617371 z"/>
  <path fill="#F2F7FA" opacity="1.000000" stroke="none" d=" M80.117813,341.345398 C79.879761,336.397766 79.879761,331.713593 79.879761,326.121796 C83.426193,328.007904 86.706612,329.671112 89.910103,331.471222 C100.207832,337.257751 110.486176,343.079041 120.740318,348.942352 C121.557617,349.409668 122.131744,350.302216 122.922928,351.304199 C108.266449,350.567322 93.978767,347.506104 80.117813,341.345398 z"/>
  <path fill="#F0F7FE" opacity="1.000000" stroke="none" d=" M356.315491,283.915222 C357.383698,275.255371 358.760010,266.484161 360.242981,257.033295 C362.882996,258.608765 364.674835,259.678070 366.778717,260.898071 C364.946594,266.840363 362.802460,272.631897 360.854919,278.773407 C361.051514,279.123352 361.014008,279.043793 360.698669,279.015503 C360.299103,279.436676 360.214905,279.886169 360.130737,280.335632 C358.961670,281.491730 357.792633,282.647827 356.315491,283.915222 z"/>
  <path fill="#F3F7F8" opacity="1.000000" stroke="none" d=" M328.419373,304.120483 C329.315460,300.314270 330.262665,296.291199 331.968414,292.620636 C332.527191,291.418213 335.103760,290.465424 336.673706,290.577118 C339.230743,290.759064 341.718842,291.909943 344.567566,292.802124 C339.521240,296.648499 334.143433,300.344666 328.419373,304.120483 z"/>
  <path fill="#FAFBF8" opacity="1.000000" stroke="none" d=" M249.898804,330.434296 C255.785233,330.355499 261.618927,330.715973 267.933899,331.106995 C262.439819,333.215027 256.464417,335.292511 249.846085,337.593536 C249.846085,334.756592 249.846085,332.815094 249.898804,330.434296 z"/>
  <path fill="#4385F4" opacity="1.000000" stroke="none" d=" M360.407715,280.208618 C360.214905,279.886169 360.299103,279.436676 360.739288,278.998657 C360.958405,279.367249 360.821533,279.724426 360.407715,280.208618 z"/>
  <path fill="#FEFEFF" opacity="1.000000" stroke="none" d=" M275.275269,328.859314 C275.217346,328.631561 275.444794,328.427856 275.898712,328.138306 C275.908478,328.297607 275.720306,328.574554 275.275269,328.859314 z"/>
  <path fill="#F2F8FE" opacity="1.000000" stroke="none" d=" M306.017731,192.591064 C305.841156,196.394897 305.261292,199.941757 305.044159,203.510696 C304.834473,206.957352 304.998779,210.426758 304.998779,215.123398 C299.010132,212.523743 293.928467,210.375671 288.894531,208.121124 C276.612000,202.620163 264.360107,197.050705 252.075378,191.554611 C249.421158,190.367126 247.568100,188.893997 248.130310,185.546860 C250.109253,173.764893 251.988724,161.966217 253.925156,150.177048 C254.055328,149.384506 254.344986,148.618149 254.784698,147.029526 C264.815552,152.077118 274.529938,156.965454 284.594116,161.924164 C286.594482,175.743301 292.946869,186.265091 306.017731,192.591064 z"/>
  <path fill="#F2F8FE" opacity="1.000000" stroke="none" d=" M331.952698,193.693710 C337.334381,195.533905 339.319611,198.946167 339.108734,204.453339 C338.722351,214.544479 338.998657,224.660965 338.998657,235.863144 C335.409637,233.786774 332.713135,232.318100 330.108368,230.701584 C323.886749,226.840424 317.545868,223.135651 311.610596,218.870361 C309.808472,217.575317 308.335815,214.717072 308.168182,212.466354 C307.724243,206.506241 308.076294,200.486862 308.151489,193.987244 C315.962463,195.906265 323.757141,196.094482 331.952698,193.693710 z"/>
  <path fill="#F2F8FE" opacity="1.000000" stroke="none" d=" M285.057739,157.626465 C275.845184,153.604980 266.687012,149.324905 257.718567,144.678650 C256.365295,143.977585 255.068024,141.518311 255.163605,139.959290 C255.555634,133.564743 256.496643,127.203865 257.394806,119.457611 C269.830933,125.505348 281.462463,131.161819 293.430054,136.895905 C289.094788,142.966064 286.093231,149.666199 285.057739,157.626465 z"/>
  <path fill="#F0F7FE" opacity="1.000000" stroke="none" d=" M358.327881,197.411331 C358.037811,201.523758 357.649902,205.287628 357.112000,210.506760 C351.081726,203.312729 342.348969,199.903992 340.041626,190.143341 C342.807129,187.106476 345.822510,184.344025 349.451294,181.019653 C352.428802,186.461060 355.329407,191.761902 358.327881,197.411331 z"/>
  <path fill="#F0F6FE" opacity="1.000000" stroke="none" d=" M368.175476,256.649597 C363.476196,255.237106 360.447876,252.684021 360.957886,247.095016 C361.604095,240.013702 361.670502,232.879959 362.016479,225.770279 C362.078491,224.495544 362.283386,223.227753 362.469330,221.526596 C364.052551,222.066483 365.245392,222.473267 366.785675,222.946472 C370.233734,234.007904 370.595154,245.104813 368.175476,256.649597 z"/>
  <path fill="#EEF5FE" opacity="1.000000" stroke="none" d=" M296.746948,134.061737 C284.570221,128.561523 272.597992,123.113754 260.872101,117.179161 C259.277191,116.371964 258.914734,113.129646 257.977966,110.618256 C270.648407,116.775841 283.343445,123.290161 295.966736,129.940659 C297.355347,130.672256 300.484497,131.639557 296.746948,134.061737 z"/>
  <path fill="#F2F8FE" opacity="1.000000" stroke="none" d=" M155.116486,210.146988 C158.914307,199.073639 162.701935,188.409302 166.209610,177.653656 C167.419189,173.944687 169.040497,172.656754 173.111755,173.721634 C195.000595,179.446960 216.950089,184.941452 238.897125,190.441910 C241.695114,191.143158 243.585815,192.249847 242.825409,195.505188 C238.173004,215.422333 233.504303,235.335648 228.812912,255.243622 C228.709976,255.680420 228.272598,256.038391 227.698959,256.843201 C201.107330,249.494476 174.417526,242.118637 147.009262,234.544235 C149.783386,226.200150 152.389923,218.360153 155.116486,210.146988 z"/>
  <path fill="#F2F8FE" opacity="1.000000" stroke="none" d=" M246.471695,195.710663 C248.640259,195.385696 250.905960,194.769440 252.580612,195.502808 C268.865051,202.634094 285.038483,210.018417 301.273773,217.262863 C304.829468,218.849487 304.211975,221.833725 303.768402,224.527939 C302.177246,234.193069 300.371002,243.822800 298.640594,253.464951 C297.584991,259.346893 296.497955,265.223236 295.466949,271.109436 C294.932587,274.160217 293.630127,275.265747 290.297455,274.315613 C272.716095,269.303223 255.097107,264.418335 237.440109,259.679474 C233.267136,258.559509 231.821320,256.821594 232.937103,252.313339 C237.568253,233.601654 241.871170,214.808731 246.471695,195.710663 z"/>
  <path fill="#F2F8FE" opacity="1.000000" stroke="none" d=" M120.659164,296.330078 C107.958336,289.979248 95.648567,283.673004 83.186058,277.684601 C79.450272,275.889496 78.582336,273.504791 79.280533,269.707214 C81.926437,255.315765 84.564606,240.919189 86.865532,226.470367 C87.501816,222.474777 89.082870,221.890747 92.553909,222.873230 C107.930992,227.225845 123.324799,231.522675 138.755173,235.681549 C142.873825,236.791626 142.194916,239.623337 141.623520,242.379471 C138.448212,257.695923 135.178192,272.992737 131.936646,288.295441 C131.453949,290.574097 130.797531,292.827881 130.488831,295.128998 C129.889511,299.596405 127.825401,300.461182 124.111664,298.075073 C123.136246,297.448364 122.035103,297.017334 120.659164,296.330078 z"/>
  <path fill="#F2F8FE" opacity="1.000000" stroke="none" d=" M247.208832,170.262665 C246.443222,175.121536 245.652313,179.535614 245.101959,183.979507 C244.650604,187.624176 242.765945,188.222275 239.529068,187.393311 C217.624039,181.783310 195.699982,176.247391 173.772202,170.726715 C170.657471,169.942520 169.694565,168.591629 171.241684,165.407501 C176.471161,154.644745 181.410904,143.740585 186.707520,133.011978 C187.276749,131.858994 189.662094,130.623672 190.857147,130.904831 C209.952454,135.397781 229.007278,140.068726 248.003815,144.961182 C249.187653,145.266052 250.706284,147.844025 250.548416,149.185501 C249.734741,156.099411 248.424530,162.954895 247.208832,170.262665 z"/>
  <path fill="#F2F8FE" opacity="1.000000" stroke="none" d=" M83.290924,281.644867 C96.487740,288.076569 109.264297,294.514526 122.244614,300.511505 C127.058128,302.735352 129.221924,304.934357 128.257553,310.937439 C126.398392,322.510590 125.848854,334.294128 124.657555,347.047424 C119.589493,344.252502 115.153320,341.855499 110.764122,339.375397 C101.216568,333.980591 91.651825,328.613190 82.205254,323.045990 C80.836586,322.239410 79.238686,320.430511 79.174431,319.020355 C78.622803,306.915131 78.390900,294.795074 78.104355,282.678497 C78.089752,282.060883 78.449478,281.434387 78.816177,280.203735 C80.288330,280.656708 81.619926,281.066406 83.290924,281.644867 z"/>
  <path fill="#F2F8FE" opacity="1.000000" stroke="none" d=" M336.204102,254.223938 C334.348053,264.568085 332.575592,274.488495 330.654266,285.242249 C323.251129,283.189606 316.576508,281.388916 309.931244,279.485596 C297.721710,275.988586 297.791962,275.975189 300.133698,263.486115 C302.457916,251.090210 304.821075,238.696167 306.786255,226.241211 C307.530334,221.525421 309.223907,221.537323 312.626801,223.709000 C319.486755,228.086853 326.325867,232.522141 333.409058,236.516068 C337.654694,238.909958 338.677643,242.067505 337.654358,246.462250 C337.090698,248.883072 336.736389,251.352646 336.204102,254.223938 z"/>
  <path fill="#F2F8FE" opacity="1.000000" stroke="none" d=" M347.741699,206.245789 C349.167114,207.671219 350.201508,209.049881 351.543365,209.989258 C358.137634,214.605438 359.940521,220.958847 359.050079,228.654877 C358.290009,235.223953 358.046906,241.852844 357.484772,249.719421 C352.398071,245.872070 347.346161,242.789139 343.356262,238.676056 C341.722504,236.991837 342.114716,233.086914 342.053741,230.182404 C341.896790,222.700806 341.984497,215.213669 342.014923,207.728897 C342.021423,206.127762 342.199036,204.527313 342.379517,201.602844 C344.683167,203.582428 346.087799,204.789444 347.741699,206.245789 z"/>
</svg>