<?xml version="1.0" encoding="utf-8"?>
<svg version="1.1" viewBox="0 0 1087 1072" width="1087" height="1072" xmlns="http://www.w3.org/2000/svg">
  <g id="Canvas_1" fill-opacity="1" stroke-opacity="1" stroke-dasharray="none" fill="none" stroke="none" transform="matrix(1, 0, 0, 1, 0, 45)">
    <title>Canvas 1</title>
    <g id="Canvas_1_Layer_1">
      <title>Layer 1</title>
      <g id="Graphic_101">
        <path d="M 985.9497 130.275 L 101.14343 130.275 C 94.17903 130.275 88.52337 135.89257 88.5 142.81008 L 88.5 767.8694 C 88.5 774.8102 94.15566 780.4277 101.14343 780.4277 L 381.58917 780.4277 L 447.6809 849.2082 C 449.6674 851.2741 452.70554 851.9473 455.36977 850.8795 C 458.0574 849.8349 459.7868 847.2583 459.7868 844.4031 L 459.7868 780.4277 L 985.8563 780.4277 C 992.844 780.4277 998.4997 774.8102 998.4997 767.8694 L 998.4997 142.92614 C 998.5231 139.60667 997.2143 136.38005 994.8539 134.01231 C 992.5168 131.64457 989.2917 130.29821 985.9497 130.275 Z" fill="#ccc"/>
      </g>
      <g id="Graphic_102">
        <path d="M 128.58037 155.3036 L 958.5128 155.3036 C 970.1279 155.3036 979.5462 164.63434 979.5462 176.14148 L 979.5462 732.86 C 979.5462 744.3672 970.1279 753.6979 958.5128 753.6979 L 128.58037 753.6979 C 116.96524 753.6979 107.54694 744.3672 107.54694 732.86 L 107.54694 176.14148 C 107.54694 164.63434 116.96524 155.3036 128.58037 155.3036 Z" fill="#e7eaf5"/>
      </g>
      <g id="Graphic_103">
        <path d="M 154.14767 178.1095 L 514.45034 178.1095 C 524.7801 178.1095 533.1467 186.39834 533.1467 196.63205 L 533.1467 427.53886 C 533.1467 437.77257 524.7801 446.0614 514.45034 446.0614 L 154.14767 446.0614 C 143.81792 446.0614 135.45129 437.77257 135.45129 427.53886 L 135.45129 196.63205 C 135.45129 186.39834 143.81792 178.1095 154.14767 178.1095 Z" fill="white"/>
      </g>
      <g id="Graphic_104">
        <path d="M 575.2837 178.1095 L 935.5864 178.1095 C 945.9161 178.1095 954.2827 186.39834 954.2827 196.63205 L 954.2827 427.53886 C 954.2827 437.77257 945.9161 446.0614 935.5864 446.0614 L 575.2837 446.0614 C 564.95395 446.0614 556.5873 437.77257 556.5873 427.53886 L 556.5873 196.63205 C 556.5873 186.39834 564.95395 178.1095 575.2837 178.1095 Z" fill="white"/>
      </g>
      <g id="Graphic_105">
        <path d="M 154.14767 469.5156 L 514.45034 469.5156 C 524.7801 469.5156 533.1467 477.80445 533.1467 488.03816 L 533.1467 718.945 C 533.1467 729.1787 524.7801 737.4675 514.45034 737.4675 L 154.14767 737.4675 C 143.81792 737.4675 135.45129 729.1787 135.45129 718.945 L 135.45129 488.03816 C 135.45129 477.80445 143.81792 469.5156 154.14767 469.5156 Z" fill="white"/>
      </g>
      <g id="Graphic_106">
        <path d="M 575.2837 469.5156 L 935.5864 469.5156 C 945.9161 469.5156 954.2827 477.80445 954.2827 488.03816 L 954.2827 718.945 C 954.2827 729.1787 945.9161 737.4675 935.5864 737.4675 L 575.2837 737.4675 C 564.95395 737.4675 556.5873 729.1787 556.5873 718.945 L 556.5873 488.03816 C 556.5873 477.80445 564.95395 469.5156 575.2837 469.5156 Z" fill="white"/>
      </g>
      <g id="Graphic_107">
        <path d="M 367.8006 359.28324 C 367.8006 359.28324 420.87495 368.54452 426.7877 380.1211 C 432.7004 391.6977 441.53445 445.94565 441.53445 445.94565 L 233.5372 445.94565 C 233.5372 445.94565 247.18555 384.1266 257.118 376.83337 C 267.05046 369.5401 308.9771 369.16966 308.9771 369.16966 C 308.9771 369.16966 325.6636 380.09797 333.72643 377.73634 C 341.78925 375.3747 367.8006 359.28324 367.8006 359.28324 Z" fill="#5f73b3"/>
      </g>
      <g id="Graphic_108">
        <path d="M 275.11327 258.82153 C 273.9915 257.52496 263.6851 256.5062 268.61628 239.23393 C 273.54745 221.96165 292.12698 212.76983 297.03478 213.20974 C 300.47024 213.69596 303.76548 214.94623 306.6634 216.86795 C 306.6634 216.86795 330.0339 199.01683 340.45713 204.59675 C 350.88036 210.17667 352.53967 216.63641 352.53967 216.63641 C 352.53967 216.63641 364.2249 206.75 372.00727 217.51624 C 375.9335 222.51733 379.25212 227.95833 381.8696 233.72347 C 381.8696 233.72347 395.28427 227.4721 399.5377 243.6099 C 403.79113 259.74766 396.1957 269.63408 396.1957 269.63408 C 396.1957 269.63408 404.3754 276.7421 400.8698 284.7068 C 399.35073 288.48078 397.411 292.09267 395.0973 295.4499 C 395.0973 295.4499 399.56107 307.39694 394.41956 312.8148 C 391.56837 315.94046 388.15628 318.51047 384.3469 320.40903 C 384.3469 320.40903 383.2251 323.41895 377.63956 326.2205 C 373.94702 328.0959 370.34797 330.17968 366.88914 332.4487 C 366.88914 332.4487 368.45496 337.61185 361.74763 337.07933 C 355.0403 336.5468 339.3587 337.2877 333.53947 320.8721 C 327.7202 304.45648 282.98912 283.43338 282.98912 283.43338 C 282.98912 283.43338 280.53522 283.54915 279.85748 278.80274 C 279.17973 274.05634 283.19946 269.1247 283.19946 269.1247 C 283.19946 269.1247 276.49213 267.17984 276.72583 264.3783 C 276.72583 262.41028 276.16494 260.48856 275.11327 258.82153 Z" fill="#1f253f"/>
      </g>
      <g id="Graphic_109">
        <path d="M 287.40614 266.76308 C 287.40614 266.76308 279.133 289.91627 282.94238 299.17755 C 286.75177 308.43883 281.93745 321.7519 284.6718 329.925 C 287.40614 338.09807 299.04464 359.63054 305.0976 359.399 C 311.15055 359.1675 314.93657 359.399 314.93657 359.399 L 310.77662 372.2722 C 310.77662 372.2722 324.35487 375.5368 329.9404 377.04174 C 335.52596 378.5467 356.7931 369.60957 360.1117 367.47948 C 362.6591 365.51145 364.8559 363.10352 366.58532 360.37144 C 366.58532 360.37144 361.91123 333.9305 363.4537 329.8324 C 364.99613 325.73427 375.7699 318.2558 375.5596 311.74974 C 375.34925 305.2437 375.0922 296.26025 369.27293 295.1952 C 366.07117 294.4543 362.70582 295.5425 360.55574 297.99674 C 360.55574 297.99674 357.63443 304.9427 357.63443 298.4135 C 357.63443 291.8843 355.85827 279.7057 352.2826 276.2559 C 348.7069 272.80606 349.595 276.2559 338.61086 275.39922 C 332.18398 274.9593 326.2245 271.81048 322.25153 266.78623 C 322.25153 266.78623 320.47537 272.82922 316.22194 268.93948 C 313.324 266.18425 310.7065 263.17434 308.39283 259.90973 C 308.39283 259.90973 306.5933 265.7212 302.33988 265.0729 C 299.09138 264.2857 296.02985 262.80388 293.389 260.7664 Z" fill="#a94151"/>
      </g>
      <g id="Graphic_110">
        <path d="M 314.93657 359.49162 C 314.93657 359.49162 337.60593 357.1763 346.83727 353.05504 C 352.37607 350.53134 356.536 345.76178 358.24206 339.9735 C 358.24206 339.9735 354.54953 357.40784 345.50515 363.68235 C 336.46078 369.95687 313.1604 369.16966 313.1604 369.16966 Z" fill="#6e2e3d"/>
      </g>
      <g id="Graphic_111">
        <path d="M 302.33988 298.66818 C 302.33988 301.70125 300.7273 304.1555 298.74082 304.1555 C 296.75433 304.1555 295.14177 301.70125 295.14177 298.66818 C 295.14177 295.6351 296.75433 293.18087 298.74082 293.18087 C 300.7273 293.18087 302.33988 295.6351 302.33988 298.66818 Z" fill="#1f253f"/>
      </g>
      <g id="Graphic_112">
        <path d="M 334.40417 298.66818 C 334.40417 301.70125 332.7916 304.1555 330.80512 304.1555 C 328.81863 304.1555 327.1827 301.70125 327.1827 298.66818 C 327.1827 295.6351 328.81863 293.18087 330.80512 293.18087 C 332.7916 293.18087 334.40417 295.70457 334.40417 298.66818 Z" fill="#1f253f"/>
      </g>
      <g id="Graphic_113">
        <path d="M 311.0337 320.71002 C 310.75325 320.71002 310.44943 320.6174 310.21573 320.45534 C 308.36946 319.1819 306.71016 317.67695 305.30793 315.94046 C 303.9992 313.85668 306.7569 311.98127 309.4445 310.15217 C 310.26247 309.6428 311.0337 309.08712 311.78155 308.48514 C 311.6647 307.1654 311.38425 305.84567 310.9636 304.57225 C 310.72988 303.83134 311.15055 303.04414 311.8984 302.83576 C 312.6229 302.60423 313.4175 302.99783 313.6512 303.73873 C 314.2822 305.47522 314.56264 307.32748 314.5159 309.17973 C 314.30556 310.22163 313.27726 310.96253 311.12718 312.44433 C 310.02877 313.11578 309.00046 313.903 308.04228 314.75965 C 309.2108 316.03308 310.51955 317.1676 311.94515 318.14 C 312.43593 318.4873 312.66963 319.11245 312.48267 319.6913 C 312.27233 320.2701 311.7348 320.6637 311.12718 320.6637 Z" fill="#6e2e3d"/>
      </g>
      <g id="Graphic_114">
        <path d="M 327.39303 329.9713 C 326.6218 332.07824 325.5935 334.0694 324.35487 335.94482 C 322.85916 338.51483 320.59222 340.5523 317.85788 341.75628 C 314.5159 342.75186 309.56136 340.8996 305.75197 338.00546 C 304.1394 336.8015 302.76055 335.34284 301.63876 333.6758 C 298.64734 329.04517 299.93272 327.03085 301.98932 327.03085 L 302.45673 327.03085 C 307.5515 327.8412 312.71637 328.16535 317.85788 327.98013 C 320.63896 327.72544 323.44342 327.67913 326.24788 327.8412 C 327.39303 328.11905 327.7202 328.67472 327.39303 329.9713 Z" fill="#6e2e3d"/>
      </g>
      <g id="Graphic_115">
        <path d="M 326.13103 327.8875 C 325.96743 328.3969 325.71036 328.85995 325.3598 329.2767 C 324.05105 330.52698 306.6634 330.34175 303.85896 329.2767 C 302.90077 328.81364 302.1763 327.98013 301.87247 326.9614 L 302.33988 326.9614 C 307.43464 327.77175 312.5995 328.0959 317.74102 327.91067 C 320.5221 327.7023 323.32657 327.7023 326.13103 327.8875 Z" fill="white"/>
      </g>
      <g id="Graphic_116">
        <path d="M 324.238 335.94482 C 322.7423 338.51483 320.47537 340.5523 317.74102 341.75628 C 314.39905 342.75186 309.4445 340.8996 305.6351 338.00546 C 309.538 336.1995 313.7914 335.29654 318.09158 335.38915 C 320.1482 335.38915 322.2048 335.57437 324.238 335.94482 Z" fill="#a94151" fill-opacity=".5"/>
      </g>
      <g id="Graphic_117">
        <path d="M 328.1175 288.08717 C 330.9921 286.7443 334.42755 287.5778 336.3673 290.0552 C 337.5358 291.537 340.1533 290.0552 338.9848 288.5734 C 336.32055 284.9615 331.50624 283.59545 327.29955 285.28564 C 325.54676 286.0034 326.318 288.80492 328.1175 288.08717 Z" fill="#1f253f"/>
      </g>
      <g id="Graphic_118">
        <path d="M 292.3373 288.94384 C 293.9265 285.88762 297.59567 284.52158 300.8208 285.7487 C 301.56865 285.91077 302.3165 285.4477 302.52684 284.7068 C 302.73718 283.98906 302.33988 283.20185 301.6154 282.94716 C 297.03478 281.37275 291.98676 283.34077 289.71982 287.5778 C 288.92522 289.268 291.5427 290.7498 292.3373 289.03645 Z" fill="#1f253f"/>
      </g>
      <g id="Graphic_119">
        <path d="M 309.09395 369.28542 C 309.09395 369.28542 326.8555 375.74517 337.58256 373.29093 C 345.1546 371.184 352.2826 367.711 358.616 363.0572 C 358.616 363.0572 368.94574 399.2225 358.616 417.4672 C 351.67496 429.06697 342.0697 438.86077 330.5714 446.0614 L 293.17865 446.0614 Z" fill="white"/>
      </g>
      <g id="Graphic_120">
        <path d="M 319.1199 372.1101 C 319.1199 372.1101 306.38297 411.95676 305.0976 426.9137 C 303.81222 441.8707 303.2046 446.0151 303.2046 446.0151 L 283.1527 446.0151 C 283.1527 446.0151 269.43424 420.70867 274.6926 414.5036 C 277.26335 411.3548 280.09118 408.4375 283.1527 405.7517 C 283.1527 405.7517 275.93124 399.1762 278.87592 392.23024 C 281.8206 385.2843 308.9771 369.2391 308.9771 369.2391 Z" fill="#97aad6"/>
      </g>
      <g id="Graphic_121">
        <path d="M 358.5926 363.0572 C 358.5926 363.0572 360.8128 393.36475 351.9554 412.00307 C 346.06604 424.0659 338.91468 435.4804 330.64153 446.0614 L 353.10056 446.0614 C 353.10056 446.0614 380.3739 428.78913 380 423.6723 C 379.62605 418.5554 370.04415 415.6381 372.26435 413.09127 C 374.48455 410.5444 386.6372 401.3989 387.7356 394.5687 C 388.834 387.7385 367.82396 359.37586 367.82396 359.37586 Z" fill="#97aad6"/>
      </g>
      <g id="Graphic_122">
        <path d="M 398.39255 446.0614 L 402.459 427.3305 L 406.31514 446.0614 Z" fill="#323879" fill-opacity=".5"/>
      </g>
      <g id="Graphic_123">
        <path d="M 254.6641 446.0614 L 262.0258 429.1596 L 265.3444 446.0614 Z" fill="#323879" fill-opacity=".5"/>
      </g>
      <g id="Graphic_124">
        <path d="M 779.8221 650.68935 C 779.8221 650.68935 832.8965 659.9506 838.7858 671.643 C 844.6752 683.33535 853.5326 737.4675 853.5326 737.4675 L 645.6756 737.4675 C 645.6756 737.4675 659.2538 675.6485 669.2564 668.471 C 679.25896 661.2935 721.0921 660.78414 721.0921 660.78414 C 721.0921 660.78414 737.802 671.7356 745.8648 669.374 C 753.9276 667.01235 779.8221 650.68935 779.8221 650.68935 Z" fill="#5f73b3"/>
      </g>
      <g id="Graphic_125">
        <path d="M 695.034 580.48886 C 695.034 580.48886 692.8372 557.6135 702.0452 544.39303 C 711.2531 531.17256 738.71345 523.8793 770.544 536.4978 C 802.3746 549.1163 799.8974 589.6112 794.9662 607.7633 C 790.035 625.9154 773.2083 638.0477 773.2083 638.0477 Z" fill="#1f253f"/>
      </g>
      <g id="Graphic_126">
        <path d="M 775.8024 625.7302 C 777.3682 621.65524 788.1186 614.1536 787.8849 607.6707 C 787.6512 601.1878 787.4409 592.1812 781.62165 591.093 C 778.4199 590.3521 775.05455 591.4403 772.9045 593.89456 C 772.9045 593.89456 769.98315 600.8405 769.98315 594.3345 C 769.913 589.6575 769.35215 585.00374 768.2771 580.44256 C 768.2771 580.44256 759.13925 581.39184 736.1661 574.0986 C 713.1929 566.8053 705.78445 556.6411 705.78445 556.6411 L 699.7315 565.0457 C 699.7315 565.0457 700.1755 563.5639 701.11035 561.29486 L 699.7315 562.6609 C 699.7315 562.6609 691.45835 585.8141 695.2677 595.0754 C 699.0771 604.33665 694.2628 617.64974 696.99715 625.8228 C 699.7315 633.9959 711.37 655.5284 717.42295 655.2968 C 723.4759 655.0653 727.2619 655.2968 727.2619 655.2968 L 725.4858 664.9749 C 730.8376 668.10055 736.4465 670.7632 742.2658 672.9164 C 747.8513 674.4214 769.1184 665.3916 772.4838 663.2384 C 775.0312 661.27036 777.228 658.8624 778.9574 656.1535 C 778.9574 656.1535 774.2366 629.8283 775.8024 625.7302 Z" fill="#a94151"/>
      </g>
      <g id="Graphic_127">
        <path d="M 727.23855 655.43575 C 727.23855 655.43575 749.9079 653.0047 759.13925 648.976 C 764.6781 646.4523 768.838 641.68276 770.544 635.89446 C 770.544 635.89446 766.8515 653.3288 757.7838 659.6265 C 748.716 665.92415 725.4624 665.1138 725.4624 665.1138 Z" fill="#6e2e3d"/>
      </g>
      <g id="Graphic_128">
        <path d="M 714.6419 594.58916 C 714.6419 597.6222 713.0293 600.0765 711.0428 600.0765 C 709.0563 600.0765 707.44375 597.6222 707.44375 594.58916 C 707.44375 591.5561 709.0563 589.10185 711.0428 589.10185 C 713.0293 589.10185 714.6419 591.5561 714.6419 594.58916 Z" fill="#1f253f"/>
      </g>
      <g id="Graphic_129">
        <path d="M 746.7996 594.58916 C 746.7996 597.6222 745.1871 600.0765 743.2006 600.0765 C 741.2141 600.0765 739.5782 597.6222 739.5782 594.58916 C 739.5782 591.5561 741.1907 589.10185 743.2006 589.10185 C 745.21045 589.10185 746.7996 591.5561 746.7996 594.58916 Z" fill="#1f253f"/>
      </g>
      <g id="Graphic_130">
        <path d="M 723.2188 616.631 C 722.915 616.631 722.6346 616.5384 722.4009 616.3763 C 720.5546 615.12604 718.8953 613.5979 717.4931 611.86144 C 716.1843 609.77765 718.942 607.90224 721.6063 606.07314 C 722.4242 605.5869 723.2188 605.03125 723.9433 604.4061 C 723.8265 603.0864 723.546 601.76665 723.12534 600.4932 C 722.96175 599.7986 723.3824 599.0809 724.0602 598.8725 C 724.7613 598.641 725.5091 598.9883 725.7896 599.6597 C 726.4206 601.3962 726.7244 603.24845 726.6777 605.1007 C 726.4673 606.1426 725.439 606.90666 723.2889 608.3653 C 722.1905 609.03675 721.1622 609.8008 720.204 610.6806 C 721.3726 611.9309 722.6813 613.0654 724.1069 614.03784 C 724.7379 614.5009 724.8781 615.3576 724.4341 615.9827 C 724.177 616.3995 723.7096 616.631 723.2188 616.631 Z" fill="#6e2e3d"/>
      </g>
      <g id="Graphic_131">
        <path d="M 739.5782 625.8923 C 738.8069 627.9992 737.7786 630.01355 736.54 631.88895 C 735.0443 634.45896 732.77735 636.4733 730.043 637.67725 C 726.701 638.67284 721.7465 636.8206 717.9371 633.9264 C 716.3245 632.7225 714.9457 631.2638 713.8239 629.5968 C 710.8325 624.96615 712.11785 622.9518 714.17445 622.9518 L 714.6419 622.9518 C 719.7366 623.7622 724.9015 624.0863 730.043 623.9011 C 732.8475 623.6927 735.62855 623.6927 738.433 623.9011 C 739.695 624.04 740.0222 624.61885 739.5782 625.8923 Z" fill="#6e2e3d"/>
      </g>
      <g id="Graphic_132">
        <path d="M 738.433 623.83164 C 738.2694 624.341 737.989 624.8041 737.6384 625.1977 C 736.353 626.44795 718.942 626.2859 716.1609 625.1977 C 715.20275 624.7346 714.4783 623.9011 714.17445 622.88236 L 714.6419 622.88236 C 719.7366 623.6927 724.9015 624.0169 730.043 623.83164 C 732.8475 623.6233 735.62855 623.6233 738.433 623.83164 Z" fill="white"/>
      </g>
      <g id="Graphic_133">
        <path d="M 736.54 631.88895 C 735.0443 634.45896 732.77735 636.4733 730.043 637.67725 C 726.701 638.67284 721.7465 636.8206 717.9371 633.9264 C 721.84 632.14364 726.0934 631.2407 730.3936 631.3333 C 732.4502 631.3333 734.5068 631.5185 736.54 631.88895 Z" fill="#a94151" fill-opacity=".47"/>
      </g>
      <g id="Graphic_134">
        <path d="M 740.4195 584.0313 C 743.2941 582.66526 746.7295 583.4756 748.6693 585.9762 C 749.8144 587.458 752.4553 585.9762 751.2868 584.5175 C 748.6225 580.8825 743.78485 579.5164 739.6015 581.22977 C 737.84875 581.92436 738.62 584.74905 740.4195 584.0313 Z" fill="#1f253f"/>
      </g>
      <g id="Graphic_135">
        <path d="M 704.7094 584.8648 C 706.2986 581.8086 709.9678 580.44256 713.1929 581.6697 C 713.94075 581.83175 714.6886 581.3687 714.8989 580.6278 C 715.1093 579.91 714.712 579.1228 713.9875 578.86814 C 709.4069 577.3169 704.3822 579.2849 702.0919 583.4988 C 701.2973 585.18896 703.8914 586.6708 704.7094 584.9574 Z" fill="#1f253f"/>
      </g>
      <g id="Graphic_136">
        <path d="M 721.0921 660.6684 C 721.0921 660.6684 738.8537 667.1513 749.6041 664.697 C 757.1761 662.5669 764.3041 659.1171 770.6375 654.4633 C 770.6375 654.4633 780.9439 690.6286 770.6375 708.8733 C 763.6965 720.4499 754.0912 730.2437 742.59295 737.4675 L 705.2002 737.4675 Z" fill="white"/>
      </g>
      <g id="Graphic_137">
        <path d="M 731.1414 666.1557 C 731.1414 666.1557 718.4045 703.4092 717.1191 718.3661 C 715.83375 733.3231 715.20275 737.4675 715.20275 737.4675 L 695.17425 737.4675 C 695.17425 737.4675 681.4324 712.1611 686.7141 705.956 C 689.2849 702.8072 692.1127 699.8667 695.17425 697.181 C 695.17425 697.181 687.9294 690.6286 690.8741 683.68265 C 693.8188 676.7367 720.9753 660.6684 720.9753 660.6684 Z" fill="#97aad6"/>
      </g>
      <g id="Graphic_138">
        <path d="M 770.6142 654.5791 C 770.6142 654.5791 772.811 684.8866 763.9769 703.5249 C 758.0876 715.58775 750.9362 727.0023 742.6631 737.5833 L 765.07535 737.5833 C 765.07535 737.5833 792.3487 720.311 791.9981 715.19415 C 791.6476 710.0773 782.0423 707.16 784.2391 704.6131 C 786.436 702.0663 798.612 692.9208 799.7338 686.0906 C 800.8556 679.2604 779.8221 650.8977 779.8221 650.8977 Z" fill="#97aad6"/>
      </g>
      <g id="Graphic_139">
        <path d="M 810.4141 737.4675 L 814.4572 718.7366 L 818.3367 737.4675 Z" fill="#323879" fill-opacity=".5"/>
      </g>
      <g id="Graphic_140">
        <path d="M 666.6856 737.4675 L 674.0473 720.5657 L 677.36595 737.4675 Z" fill="#323879" fill-opacity=".5"/>
      </g>
      <g id="Graphic_141">
        <path d="M 755.3532 670.7863 C 754.2548 676.2968 752.8526 681.7609 751.14655 687.1325 C 750.2818 688.9153 748.6693 690.25816 746.7529 690.7907 L 738.71345 737.4675 L 723.9667 736.0783 C 723.9667 736.0783 740.4662 690.51284 739.6716 687.4566 C 738.87705 684.4004 737.7786 685.1413 736.2362 681.55256 C 734.6937 677.9638 736.0025 667.4754 739.6716 666.7808 C 743.3408 666.0862 754.6755 663.632 755.3766 665.87784 C 755.7739 667.4986 755.7739 669.18875 755.3532 670.7863 Z" fill="#e7ac65"/>
      </g>
      <g id="Graphic_142">
        <path d="M 727.5891 662.70586 C 733.0344 662.7985 738.4096 663.9793 743.38755 666.1557 C 743.9952 666.2946 744.5093 666.66505 744.8365 667.1976 C 744.9767 667.6375 744.9767 668.0774 744.8365 668.5173 C 743.62125 673.14795 741.6815 679.4919 737.8254 682.59445 C 737.4047 682.9186 733.1513 674.6992 732.6605 673.8194 C 730.6039 670.27695 728.89785 666.5724 727.5891 662.70586 Z" fill="#e7eaf5"/>
      </g>
      <g id="Graphic_143">
        <path d="M 746.6828 665.13694 L 770.6142 654.5791 C 770.6142 654.5791 766.945 676.36624 763.2758 678.9594 C 759.6067 681.55256 742.0554 670.9021 746.6828 665.13694 Z" fill="#e7eaf5"/>
      </g>
      <g id="Graphic_144">
        <path d="M 772.3903 593.06105 L 755.0728 593.06105 C 753.3667 585.53626 747.7578 580.0258 741.0505 580.0258 C 734.3432 580.0258 729.0147 585.351 727.1684 592.6443 C 725.8831 591.71816 724.364 591.18564 722.7982 591.1162 C 721.4427 591.1625 720.1573 591.57924 719.0589 592.36645 C 717.89036 584.40175 712.9592 578.47453 707.0698 578.47453 C 700.31576 578.47453 694.8237 586.3466 694.8237 596.02466 C 694.8237 605.7027 700.31576 613.5748 707.0698 613.5748 C 713.8239 613.5748 719.31596 605.7027 719.31596 596.02466 C 719.31596 596.02466 719.31596 595.88574 719.31596 595.7931 C 720.2274 594.7744 721.466 594.1261 722.8215 593.9409 C 724.2705 594.1261 725.626 594.79754 726.6777 595.8163 C 726.6777 596.534 726.5608 597.2518 726.5608 597.9927 C 726.5608 607.85594 733.0578 615.8901 741.0739 615.8901 C 749.08995 615.8901 755.5636 607.85594 755.5636 597.9927 C 755.5636 597.2981 755.5168 596.6035 755.4467 595.9089 L 772.43705 595.9089 Z M 706.953 610.7269 C 701.74136 610.7269 697.6048 604.1051 697.6048 595.9552 C 697.6048 587.8053 701.8348 581.18346 706.953 581.18346 C 712.0711 581.18346 716.3012 587.8053 716.3012 595.9552 C 716.3012 604.1051 712.2581 610.7269 707.04645 610.7269 Z M 740.93365 613.04225 C 734.46 613.04225 729.2484 606.2584 729.2484 597.9232 C 729.2484 589.5881 734.4834 582.781 740.93365 582.781 C 747.3839 582.781 752.6189 589.5881 752.6189 597.9232 C 752.6189 606.2584 747.4774 613.04225 741.0505 613.04225 Z" fill="white"/>
      </g>
      <g id="Graphic_145">
        <path d="M 723.3357 216.1502 C 723.3357 216.1502 741.16735 191.88565 778.93405 210.59343 C 816.7007 229.3012 810.0635 270.79174 815.2985 270.79174 C 820.5335 270.79174 830.3491 263.17434 839.7908 275.97805 C 849.2324 288.78177 845.0258 309.5965 835.9346 316.54245 C 826.8435 323.4884 812.1669 318.97353 807.2591 311.68028 C 802.3513 304.38702 798.5185 304.06288 792.933 309.96694 C 787.3474 315.871 770.1935 323.11796 766.0102 322.07606 C 761.8269 321.03417 741.16735 301.9791 723.3357 284.3132 C 705.504 266.6473 698.3994 269.3331 698.3994 269.3331 C 698.3994 269.3331 694.6601 250.37062 700.269 238.58564 C 705.8779 226.80067 723.3357 216.1502 723.3357 216.1502 Z" fill="#1f253f"/>
      </g>
      <g id="Graphic_146">
        <path d="M 716.8153 353.958 C 716.8153 353.958 680.9183 358.58865 672.4114 373.73084 C 663.90455 388.87303 662.0349 446.0614 662.0349 446.0614 L 836.9863 446.0614 C 836.9863 446.0614 818.6872 384.52023 809.3157 374.2865 C 799.9441 364.0528 764.1405 360.0936 764.1405 360.0936 Z" fill="#e7ac65"/>
      </g>
      <g id="Graphic_147">
        <path d="M 802.3513 446.0614 L 798.8457 431.6833 L 792.5123 446.0614 Z" fill="#d78058"/>
      </g>
      <g id="Graphic_148">
        <path d="M 784.8935 299.29332 C 784.543 305.17423 777.8824 308.5546 777.8824 308.5546 L 778.2329 312.35172 C 778.5835 316.172 772.2968 327.26238 769.8429 330.7122 C 767.389 334.16203 769.8429 350.46188 769.8429 350.46188 C 765.8466 352.89296 761.4763 354.6526 756.9191 355.67135 C 752.4553 356.75955 742.8968 356.71324 734.99755 356.3891 C 727.9864 356.11126 722.284 355.67135 722.284 355.67135 L 722.284 342.9371 L 719.1524 342.2425 C 715.99735 341.5479 712.4918 336.7089 705.1301 324.9239 C 697.7684 313.13893 700.24565 302.04855 700.1054 295.82034 C 700.08205 290.42564 699.28746 285.07726 697.7684 279.89094 C 696.0156 273.31543 702.6528 252.52387 702.6528 252.52387 L 718.4045 238.63195 C 720.5312 244.42025 723.2188 250.00017 726.44395 255.25594 C 733.0812 267.04092 761.4997 285.7487 764.5612 289.268 C 767.6227 292.78727 772.60065 282.64617 777.8356 284.63735 C 783.0706 286.62852 785.2441 293.38925 784.8935 299.29332 Z" fill="#e19b84"/>
      </g>
      <g id="Graphic_149">
        <path d="M 769.2119 287.16104 L 751.77755 287.16104 C 750.0715 279.63626 744.486 274.10264 737.7553 274.10264 C 731.0246 274.10264 725.7195 279.42788 723.8966 286.7443 C 722.6346 285.81816 721.1155 285.26248 719.5263 285.19302 C 718.1708 285.23933 716.86206 285.67924 715.76364 286.46645 C 714.5951 278.50175 709.66395 272.57453 703.7746 272.57453 C 697.0205 272.57453 691.5518 280.44662 691.5518 290.12465 C 691.5518 299.8027 697.0205 307.67477 703.7746 307.67477 C 710.52866 307.67477 716.0207 299.8027 716.0207 290.12465 L 716.0207 289.89312 C 716.9322 288.87438 718.1708 288.20294 719.5263 288.04087 C 720.9753 288.24924 722.3074 288.89753 723.35905 289.91627 C 723.35905 290.61087 723.2422 291.35177 723.2422 292.09267 C 723.2422 301.95594 729.7626 309.9901 737.7553 309.9901 C 745.748 309.9901 752.245 301.95594 752.245 292.09267 C 752.2917 291.39808 752.2917 290.68033 752.245 289.98573 L 769.2119 289.98573 Z M 703.7746 304.82693 C 698.5863 304.82693 694.4264 298.20512 694.4264 290.0552 C 694.4264 281.90527 698.6798 275.2603 703.7746 275.2603 C 708.86935 275.2603 713.1228 281.90527 713.1228 290.0552 C 713.1228 298.20512 709.0797 304.82693 703.8681 304.82693 Z M 737.7553 307.14225 C 731.305 307.14225 726.07 300.35837 726.07 292.0232 C 726.07 283.68807 731.3284 276.88103 737.7553 276.88103 C 744.18215 276.88103 749.4405 283.6649 749.4405 292.0232 C 749.4405 300.38152 744.299 307.14225 737.84875 307.14225 Z" fill="#1f253f"/>
      </g>
      <g id="Graphic_150">
        <path d="M 718.8018 314.75965 C 718.45125 314.75965 718.1241 314.6439 717.867 314.41235 C 716.605 313.27785 715.4131 312.0739 714.33804 310.7773 C 713.894 310.26793 713.6837 309.57334 713.7538 308.9019 C 713.9174 307.32748 715.5066 306.0772 717.02565 304.8964 C 717.5865 304.47963 718.1241 303.9934 718.6148 303.48405 C 718.2643 301.46972 717.5398 299.52485 716.5115 297.74205 C 716.3245 297.4179 716.3012 297.0243 716.39465 296.677 C 716.5115 296.3297 716.7686 296.02872 717.0958 295.86665 C 717.7735 295.51935 718.6382 295.77403 718.9888 296.44548 C 720.204 298.7608 722.097 302.92837 721.0687 304.80378 C 720.4377 305.7299 719.6665 306.49396 718.7317 307.1191 C 717.9137 307.72108 717.1659 308.39252 716.5349 309.17973 C 717.5164 310.31424 718.5681 311.40244 719.6899 312.39803 C 720.27415 312.9074 720.3209 313.7872 719.8301 314.36605 C 719.5497 314.62073 719.1757 314.75965 718.8018 314.75965 Z" fill="#a94151"/>
      </g>
      <g id="Graphic_151">
        <path d="M 721.13885 325.5259 C 718.2643 325.64165 715.4832 324.50715 713.5201 322.4465 C 713.1228 321.84453 713.2396 321.05732 713.8005 320.6174 C 714.33804 320.15435 715.156 320.20065 715.6702 320.68687 C 717.867 322.7012 720.9986 323.37264 723.8498 322.42336 C 727.00484 321.8677 729.9028 320.33957 732.14635 318.07056 C 732.6371 317.5149 733.4785 317.42227 734.0627 317.88533 C 734.647 318.32524 734.7872 319.15876 734.36654 319.76074 C 731.74905 322.56228 728.26685 324.4377 724.4808 325.10913 C 723.3824 325.3638 722.2606 325.50273 721.13885 325.5259 Z" fill="#a94151"/>
      </g>
      <g id="Graphic_152">
        <path d="M 738.1058 290.28673 C 738.1058 292.5789 736.9607 294.4543 735.5351 294.4543 C 734.1095 294.4543 732.9643 292.5789 732.9643 290.28673 C 732.9643 287.99456 734.1095 286.11915 735.5351 286.11915 C 736.9607 286.11915 738.1058 287.99456 738.1058 290.28673 Z" fill="#1f253f"/>
      </g>
      <g id="Graphic_153">
        <path d="M 709.5237 288.94384 C 709.5237 291.25916 708.3318 293.22718 706.8595 293.22718 C 705.38715 293.22718 704.19526 291.30547 704.19526 288.94384 C 704.19526 286.5822 705.38715 284.6605 706.8595 284.6605 C 708.3318 284.6605 709.5237 286.55906 709.5237 288.94384 Z" fill="#1f253f"/>
      </g>
      <g id="Graphic_154">
        <path d="M 760.7518 331.17527 C 760.56485 331.4994 754.9326 342.47403 751.4036 345.87755 C 746.23875 349.8136 740.77006 353.35603 735.0443 356.4817 C 728.03314 356.20387 722.33075 355.76396 722.33075 355.76396 L 722.33075 342.9371 C 722.33075 342.9371 735.8155 343.979 745.4208 339.4641 C 750.7025 337.03302 755.8206 334.25464 760.7518 331.17527 Z" fill="#a94151"/>
      </g>
      <g id="Graphic_155">
        <path d="M 681.8998 446.0614 L 687.57885 417.30515 L 689.355 446.0614 Z" fill="#d78058"/>
      </g>
      <g id="Graphic_156">
        <path d="M 725.6026 353.958 C 725.6026 353.958 710.9961 387.43753 708.3085 408.50694 C 706.6959 420.96335 706.2986 433.53554 707.1399 446.0614 L 768.3706 446.0614 L 756.3348 359.02856 Z" fill="#f1d87f"/>
      </g>
      <g id="Graphic_157">
        <path d="M 821.04765 412.7208 C 817.0046 414.52677 803.2861 415.52235 789.7312 411.07694 L 787.8616 410.4055 C 783.6315 408.85423 779.6352 406.7473 775.9894 404.131 C 774.6339 403.15855 773.3952 402.0472 772.2501 400.82008 C 771.8762 400.44962 771.549 400.056 771.2218 399.6624 C 760.6817 386.88185 765.1922 367.47948 765.1922 367.47948 L 781.9956 353.958 C 781.9956 353.958 780.19605 371.50813 799.7104 378.03733 L 801.1126 378.47724 L 802.7486 378.9403 C 806.8618 379.9822 811.0685 380.6768 815.2985 381.00094 L 816.8643 381.00094 C 828.5496 381.57977 832.8264 378.4078 833.3873 382.8995 C 834.1351 388.96564 826.4696 410.2666 821.04765 412.7208 Z" fill="#5b8b77"/>
      </g>
      <g id="Graphic_158">
        <path d="M 801.1126 378.47724 C 799.0093 384.8212 794.5222 390.10015 788.5627 393.20267 C 783.2342 396.02736 777.7889 398.55106 772.20335 400.82008 C 771.8294 400.44962 771.5022 400.056 771.17505 399.6624 C 776.8541 397.37025 782.41625 394.7771 787.8148 391.9061 C 793.4237 388.96564 797.6772 383.9877 799.6637 378.0142 Z" fill="#78b066"/>
      </g>
      <g id="Graphic_159">
        <path d="M 816.8643 381.09355 C 815.1583 386.69663 812.4006 391.92925 808.7781 396.53673 C 803.4263 402.5334 796.9527 407.46504 789.7312 411.07694 L 787.8616 410.4055 C 795.3635 406.81675 802.0708 401.76936 807.6096 395.6106 C 811.0451 391.23465 813.6392 386.27987 815.2985 381.00094 Z" fill="#78b066"/>
      </g>
      <g id="Graphic_160">
        <path d="M 791.3905 381.13986 C 789.5676 384.31185 783.3978 387.09023 775.9894 389.10456 L 774.517 389.49816 C 767.0385 391.39673 759.3496 392.41547 751.614 392.5544 C 750.9128 392.5544 750.2117 392.5544 749.534 392.5544 L 747.4073 392.4386 C 738.7602 391.4199 730.1832 389.93807 721.69974 388.01636 L 720.0872 387.62275 C 714.2679 386.303 708.40194 384.75176 703.2838 382.9921 L 701.6946 382.4596 C 694.4264 379.8896 689.0512 377.0186 688.0696 374.03183 C 685.3119 365.60407 693.4682 340.3671 705.55074 341.61736 C 706.0649 341.66366 706.57905 341.75628 707.0932 341.91835 C 707.4905 342.01096 707.8878 342.1499 708.2617 342.31195 C 714.5484 344.4189 720.9753 346.01646 727.519 347.10466 L 729.1082 347.3825 C 734.7872 348.35494 740.53635 348.84115 746.2855 348.88746 L 747.8747 348.88746 C 750.8895 348.818 753.9043 348.517 756.8723 347.96133 C 765.1221 346.31746 769.7261 344.7199 772.7876 343.93268 C 773.4887 343.74745 774.2132 343.60853 774.9377 343.5159 C 777.2747 343.2381 778.7003 344.0253 781.201 346.7342 C 786.9501 352.7309 795.5972 373.8003 791.3905 381.13986 Z" fill="#78b066"/>
      </g>
      <g id="Graphic_161">
        <path d="M 701.3207 365.65037 C 701.9751 372.59633 702.69955 378.33832 703.4474 382.9921 L 701.8582 382.4596 C 701.1571 377.82895 700.47935 372.38795 699.825 365.76614 C 698.7032 354.0043 701.74136 346.41007 705.7143 341.52474 C 706.2285 341.57105 706.7426 341.66366 707.2568 341.82574 C 703.1903 346.41007 700.0587 353.79594 701.3207 365.65037 Z" fill="#94c384"/>
      </g>
      <g id="Graphic_162">
        <path d="M 729.1549 347.2899 C 724.4808 355.6019 719.1991 366.8312 719.8067 375.44417 C 720.0872 379.6812 720.7649 383.87194 721.8166 387.97005 L 720.204 387.57645 C 719.2225 383.61725 718.5915 379.5886 718.311 375.5368 C 717.7735 366.64596 722.9851 355.3935 727.6592 347.01205 Z" fill="#94c384"/>
      </g>
      <g id="Graphic_163">
        <path d="M 751.614 392.5544 C 750.9128 392.5544 750.2117 392.5544 749.534 392.5544 C 747.8747 390.7253 746.379 388.7804 745.04685 386.7198 C 739.5782 378.1994 742.9201 360.95027 746.3322 348.84115 L 747.9214 348.84115 C 744.5561 360.71874 741.1206 377.87526 746.3089 385.88626 C 747.8513 388.2942 749.6275 390.5169 751.614 392.5544 Z" fill="#94c384"/>
      </g>
      <g id="Graphic_164">
        <path d="M 776.1062 389.10456 L 774.6339 389.49816 C 770.1 382.04283 767.2488 373.68453 766.314 365.02524 C 765.9868 357.40784 768.32385 349.9062 772.9512 343.8169 C 773.6523 343.6317 774.3768 343.49277 775.1013 343.40015 C 770.1234 349.4663 767.5059 357.10684 767.7863 364.90947 C 768.72115 373.47615 771.5723 381.74184 776.1062 389.10456 Z" fill="#94c384"/>
      </g>
      <g id="Graphic_165">
        <path d="M 297.68915 504.0833 C 297.68915 504.0833 307.03734 484.4957 335.2689 506.39864 C 363.5004 528.30156 346.27638 545.296 372.8486 551.7326 C 399.42085 558.1692 384.13655 586.9949 381.8696 603.2253 C 379.6027 619.4557 366.72555 620.868 388.27313 632.9077 C 409.8207 644.94736 399.11703 679.9318 385.25834 684.9561 C 371.39964 689.9803 335.54933 701.48746 325.6636 676.85246 C 315.7779 652.21746 310.68314 581.39184 291.19216 582.52634 C 271.70118 583.66085 259.29146 583.91554 259.29146 583.91554 C 253.37873 570.50984 250.4808 555.9928 250.7846 541.3831 C 251.62594 517.97524 285.32617 498.73493 297.68915 504.0833 Z" fill="#1f253f"/>
      </g>
      <g id="Graphic_166">
        <path d="M 266.04553 539.3225 C 266.04553 539.3225 253.05154 553.608 256.44026 564.791 C 258.7773 572.4084 259.7355 580.3731 259.2681 588.31464 C 259.2681 594.4734 266.04553 617.9739 270.27558 619.08524 C 274.50564 620.1966 289.20567 619.08524 289.20567 619.08524 C 289.20567 619.08524 290.63127 633.6486 289.20567 641.4975 C 288.50456 644.8084 288.03715 648.1888 287.80344 651.5692 L 308.13576 659.39495 L 337.7929 645.503 C 337.7929 645.503 332.06713 627.7677 331.2959 617.534 C 330.52468 607.30026 328.95885 597.6685 331.88016 596.2562 C 334.80147 594.84384 346.55682 588.4304 347.1177 581.6928 C 347.6786 574.95525 342.88766 565.4856 336.6711 566.3191 C 333.4226 566.7127 330.1975 567.361 327.06584 568.264 C 327.06584 568.264 305.0275 560.4382 297.12826 550.06557 C 291.9634 542.9807 287.87355 535.17806 284.9756 526.9124 Z" fill="#e19b84"/>
      </g>
      <g id="Graphic_167">
        <path d="M 289.20567 619.08524 C 296.3103 616.5152 302.97088 612.857 308.95372 608.2727 L 317.18013 601.46566 C 317.18013 601.46566 311.24403 613.5053 306.14927 621.6089 C 301.0545 629.71255 289.78993 636.7048 289.78993 636.7048 Z" fill="#a94151"/>
      </g>
      <g id="Graphic_168">
        <path d="M 278.05795 590.7689 C 277.7074 590.7689 277.3802 590.6531 277.12313 590.4216 C 275.86113 589.3102 274.6926 588.0831 273.5942 586.8097 C 273.17352 586.27716 272.9632 585.6057 273.0333 584.9343 C 273.1969 583.383 274.7627 582.13274 276.2818 580.9519 C 276.8427 580.5352 277.3802 580.04895 277.871 579.5396 C 277.52043 577.52525 276.79595 575.5804 275.76764 573.82074 C 275.60405 573.4966 275.5573 573.12615 275.67416 572.77885 C 275.791 572.43155 276.02472 572.13056 276.3519 571.9685 C 277.02965 571.6212 277.89436 571.8759 278.2449 572.5473 C 279.4368 574.86264 281.32982 578.9839 280.3249 580.8593 C 279.6939 581.7623 278.8993 582.5495 277.98784 583.1746 C 277.16987 583.75346 276.4454 584.44806 275.8144 585.2121 C 276.77257 586.3698 277.82425 587.4348 278.94603 588.4304 C 279.50692 588.9398 279.57703 589.79645 279.06288 590.3753 C 278.8058 590.62996 278.43188 590.7689 278.05795 590.7689 Z" fill="#a94151"/>
      </g>
      <g id="Graphic_169">
        <path d="M 280.37163 601.46566 C 277.52043 601.5814 274.7627 600.4701 272.7996 598.4094 C 272.3088 597.8306 272.4023 596.9508 273.00993 596.4646 C 273.5942 596.0015 274.4589 596.0941 274.94968 596.67295 C 277.12313 598.6873 280.25478 599.33556 283.05923 598.3863 C 286.19088 597.85376 289.0888 596.32565 291.309 594.0566 C 291.77642 593.45465 292.6645 593.3389 293.27213 593.80195 C 293.57595 594.0335 293.7629 594.3576 293.80965 594.7049 C 293.8564 595.0754 293.7629 595.4458 293.5292 595.7237 C 290.9351 598.5252 287.47625 600.42376 283.69024 601.07205 C 282.59182 601.32674 281.4934 601.46566 280.37163 601.46566 Z" fill="#a94151"/>
      </g>
      <g id="Graphic_170">
        <path d="M 297.2685 566.4117 C 297.2685 568.72704 296.12333 570.55614 294.69773 570.55614 C 293.27213 570.55614 292.12698 568.7039 292.12698 566.4117 C 292.12698 564.11955 293.27213 562.29045 294.69773 562.29045 C 296.12333 562.29045 297.2685 564.1427 297.2685 566.4117 Z" fill="#1f253f"/>
      </g>
      <g id="Graphic_171">
        <path d="M 268.8266 565.092 C 268.8266 567.4073 267.63472 569.3522 266.18575 569.3522 C 264.73678 569.3522 263.5215 567.43046 263.5215 565.092 C 263.5215 562.7535 264.7134 560.80865 266.18575 560.80865 C 267.6581 560.80865 268.8266 562.73036 268.8266 565.092 Z" fill="#1f253f"/>
      </g>
      <g id="Graphic_172">
        <path d="M 261.13772 558.3544 C 261.81547 557.19675 262.00243 555.80756 263.24107 555.0435 C 264.6433 554.3952 266.18575 554.0942 267.7282 554.21 C 268.4293 554.21 268.9902 553.6543 268.9902 552.9597 C 268.9902 552.2651 268.4293 551.70944 267.7282 551.70944 C 265.7417 551.5705 263.73185 551.9873 261.9557 552.8671 C 260.2029 553.93215 259.8991 555.46026 258.9409 557.081 C 258.59034 557.68297 258.80068 558.447 259.38494 558.7943 C 259.99257 559.1648 260.78717 558.9564 261.13772 558.3544 Z" fill="#1f253f"/>
      </g>
      <g id="Graphic_173">
        <path d="M 290.7715 553.8627 C 293.08517 554.02476 295.1184 555.3908 296.1467 557.45143 C 296.91793 558.8869 299.09138 557.6135 298.34353 556.178 C 296.8478 553.3533 293.97325 551.5242 290.7715 551.339 C 289.13556 551.2232 289.13556 553.6543 290.7715 553.8627 Z" fill="#1f253f"/>
      </g>
      <g id="Graphic_174">
        <path d="M 289.71982 636.7048 C 289.71982 636.7048 252.18683 646.707 246.0404 654.718 C 239.89396 662.729 230.24195 737.4675 230.24195 737.4675 L 405.7776 737.4675 C 405.7776 737.4675 384.23004 654.3244 369.2028 644.4148 C 354.1756 634.5053 334.40417 633.5791 334.40417 633.5791 C 334.40417 633.5791 322.71894 649.3696 313.37074 650.5273 C 304.02255 651.6849 291.84653 646.9154 289.71982 636.7048 Z" fill="#94c384"/>
      </g>
      <g id="Graphic_175">
        <path d="M 289.71982 636.7048 C 289.71982 636.7048 278.03458 656.8481 283.1527 659.39495 C 288.27085 661.9418 294.83795 669.58235 298.50712 667.6838 C 302.5736 664.9749 306.40634 661.91865 309.9353 658.5614 C 309.9353 658.5614 312.10874 665.5074 317.18013 665.7621 C 322.25153 666.0168 346.884 658.8161 345.2247 652.3564 C 343.5654 645.8966 334.3107 633.5791 334.3107 633.5791 C 334.3107 633.5791 320.5221 645.7809 309.42113 646.707 C 298.32016 647.6331 289.71982 636.7048 289.71982 636.7048 Z" fill="white"/>
      </g>
      <g id="Graphic_176">
        <path d="M 259.12786 737.4675 L 259.12786 700.8623 L 250.73786 737.4675 Z" fill="#78b066"/>
      </g>
      <g id="Graphic_177">
        <path d="M 374.9987 737.4675 L 366.9125 709.6374 L 382.6876 737.4675 Z" fill="#78b066"/>
      </g>
    </g>
  </g>
  <path d="M 1020.514 920.214 L 58.064 920.214 C 30.324 920.214 7.859 903.093 7.859 881.953 L 7.859 148.474 C 7.859 127.334 30.324 110.214 58.064 110.214 L 1020.514 110.214 C 1048.253 110.214 1070.718 127.334 1070.718 148.474 L 1070.718 881.953 C 1070.718 903.093 1048.253 920.214 1020.514 920.214 Z" fill-opacity=".19" style="fill: rgb(171, 173, 198);"/>
</svg>