<?xml version="1.0" encoding="utf-8"?>
<svg version="1.1" viewBox="0 0 1447 1024" width="1447" height="1024" xmlns="http://www.w3.org/2000/svg">
  <g id="Canvas_1" fill-opacity="1" stroke-opacity="1" stroke-dasharray="none" fill="none" stroke="none">
    <title>Canvas 1</title>
    <g id="Canvas_1_Layer_1" transform="matrix(1, 0, 0, 1, 14.511415, -6.712328)">
      <title>Layer 1</title>
      <g id="Graphic_6" transform="matrix(1, 0, 0, 1, -10.835616, 62.114151)">
        <rect x="1027.9206" y="538.5715" width="140.94426" height="29.626668" fill="#d8e5ed"/>
      </g>
      <g id="Graphic_7" transform="matrix(1, 0, 0, 1, -10.835616, 62.114151)">
        <rect x="951.8746" y="538.5715" width="40.375824" height="29.626668" fill="#d8e5ed"/>
      </g>
      <g id="Graphic_9" transform="matrix(1, 0, 0, 1, -10.835616, 62.114151)">
        <rect x="1228.9594" y="538.5715" width="40.36182" height="29.626668" fill="#d8e5ed"/>
      </g>
      <g id="Graphic_12" transform="matrix(1, 0, 0, 1, -10.835616, 62.114151)">
        <rect x="1027.9206" y="604.1803" width="140.94426" height="29.626668" fill="#d8e5ed"/>
      </g>
      <g id="Graphic_13" transform="matrix(1, 0, 0, 1, -10.835616, 62.114151)">
        <rect x="951.8746" y="604.1803" width="40.375824" height="29.626668" fill="#d8e5ed"/>
      </g>
      <g id="Graphic_15" transform="matrix(1, 0, 0, 1, -10.835616, 62.114151)">
        <rect x="1228.9594" y="604.1803" width="40.36182" height="29.626668" fill="#d8e5ed"/>
      </g>
      <g id="Graphic_18" transform="matrix(1, 0, 0, 1, -10.835616, 62.114151)">
        <rect x="1027.9206" y="669.5014" width="140.94426" height="29.626668" fill="#d8e5ed"/>
      </g>
      <g id="Graphic_19" transform="matrix(1, 0, 0, 1, -10.835616, 62.114151)">
        <rect x="951.8746" y="669.5014" width="40.375824" height="29.626668" fill="#d8e5ed"/>
      </g>
      <g id="Graphic_21" transform="matrix(1, 0, 0, 1, -10.835616, 62.114151)">
        <rect x="1228.9594" y="669.5014" width="40.36182" height="29.626668" fill="#d8e5ed"/>
      </g>
      <g id="Graphic_25" transform="matrix(1, 0, 0, 1, -10.835616, 62.114151)">
        <path d="M 822.5963 382.35694 C 877.243 382.35694 921.5542 340.82756 921.5542 289.61438 C 921.5542 238.3875 877.243 196.85811 822.5963 196.85811 C 767.9496 196.85811 723.6384 238.3875 723.6384 289.61438 C 723.6384 340.82756 767.9496 382.35694 822.5963 382.35694 Z" fill="#baa1fa"/>
      </g>
      <g id="Graphic_26" transform="matrix(1, 0, 0, 1, -10.835616, 62.114151)">
        <path d="M 821.826 382.35694 C 821.826 363.42765 821.826 332.51346 821.826 289.64177 C 773.5235 247.92063 749.3792 227.06006 749.3792 227.06006 C 733.38575 243.55128 723.6384 265.5213 723.6384 289.64177 C 723.6384 340.84125 767.5995 382.35694 821.826 382.35694 Z" fill="#859be9"/>
      </g>
      <g id="Graphic_27" transform="matrix(1, 0, 0, 1, -10.835616, 62.114151)">
        <path d="M 821.854 288.88843 C 821.854 288.88843 821.854 320.04917 821.854 382.35694 C 876.9349 382.35694 921.5822 340.5947 921.5822 289.0802 C 921.5822 289.0802 888.3348 289.0254 821.854 288.88843 Z" fill="#ed81ff"/>
      </g>
      <g id="Graphic_29" transform="matrix(1, 0, 0, 1, -10.835616, 62.114151)">
        <rect x="981.1026" y="198.2963" width="265.72698" height="32.79068" fill="#baa1fa"/>
      </g>
      <g id="Graphic_34" transform="matrix(1, 0, 0, 1, -10.835616, 62.114151)">
        <rect x="166.59769" y="121.19574" width="1116.0561" height="665.5385" fill="white"/>
      </g>
      <g id="Graphic_35" transform="matrix(1, 0, 0, 1, -10.835616, 62.114151)">
        <rect x="134.26062" y="121.19574" width="1169.4004" height="166.37778" fill="#26c2a1"/>
      </g>
      <g id="Graphic_38" transform="matrix(1, 0, 0, 1, -10.835616, 62.114151)">
        <path d="M 421.77906 225.18356 L 272.9221 225.18356 C 261.17207 225.18356 251.6488 215.88328 251.6488 204.37778 C 251.6488 192.88598 261.17207 183.5857 272.9221 183.5857 L 421.77906 183.5857 C 433.5291 183.5857 443.05235 192.88598 443.05235 204.37778 C 443.05235 215.88328 433.5291 225.18356 421.77906 225.18356 Z" fill="#d8cef1"/>
      </g>
      <g id="Graphic_39" transform="matrix(1, 0, 0, 1, -10.835616, 62.114151)">
        <path d="M 847.0907 227.06006 L 825.8314 227.06006 C 814.0814 227.06006 804.5581 217.75978 804.5581 206.25427 C 804.5581 194.76247 814.0814 185.46219 825.8314 185.46219 L 847.0907 185.46219 C 858.8547 185.46219 868.364 194.76247 868.364 206.25427 C 868.364 217.75978 858.8547 227.06006 847.0907 227.06006 Z" fill="white"/>
      </g>
      <g id="Graphic_40" transform="matrix(1, 0, 0, 1, -10.835616, 62.114151)">
        <path d="M 953.4291 227.06006 L 932.1558 227.06006 C 920.4058 227.06006 910.8965 217.75978 910.8965 206.25427 C 910.8965 194.76247 920.4058 185.46219 932.1558 185.46219 L 953.4291 185.46219 C 965.1791 185.46219 974.6884 194.76247 974.6884 206.25427 C 974.6884 217.75978 965.1791 227.06006 953.4291 227.06006 Z" fill="white"/>
      </g>
      <g id="Graphic_41" transform="matrix(1, 0, 0, 1, -10.835616, 62.114151)">
        <path d="M 1059.7535 227.06006 L 1038.4802 227.06006 C 1026.7302 227.06006 1017.2209 217.75978 1017.2209 206.26797 C 1017.2209 194.76247 1026.7302 185.46219 1038.4802 185.46219 L 1059.7535 185.46219 C 1071.5035 185.46219 1081.0128 194.76247 1081.0128 206.26797 C 1081.0128 217.75978 1071.5035 227.06006 1059.7535 227.06006 Z" fill="white"/>
      </g>
      <g id="Graphic_42" transform="matrix(1, 0, 0, 1, -10.835616, 62.114151)">
        <path d="M 1166.0779 227.06006 L 1144.8186 227.06006 C 1133.0686 227.06006 1123.5453 217.75978 1123.5453 206.25427 C 1123.5453 194.76247 1133.0686 185.46219 1144.8186 185.46219 L 1166.0779 185.46219 C 1177.842 185.46219 1187.3512 194.76247 1187.3512 206.25427 C 1187.3512 217.75978 1177.842 227.06006 1166.0779 227.06006 Z" fill="white"/>
      </g>
      <g id="Graphic_43" transform="matrix(1, 0, 0, 1, -10.835616, 62.114151)">
        <path d="M 634.4419 724.3443 L 272.9221 724.3443 C 261.17207 724.3443 251.6488 715.0303 251.6488 703.5385 L 251.6488 370.76926 C 251.6488 359.29115 261.17207 349.97717 272.9221 349.97717 L 634.4419 349.97717 C 646.1779 349.97717 655.70116 359.29115 655.70116 370.76926 L 655.70116 703.5385 C 655.70116 715.0303 646.1779 724.3443 634.4419 724.3443 Z" fill="#eef5ef"/>
      </g>
      <g id="Graphic_44" transform="matrix(1, 0, 0, 1, -10.835616, 62.114151)">
        <path d="M 1144.8186 391.57504 L 740.7663 391.57504 C 729.0163 391.57504 719.507 382.26106 719.507 370.76926 C 719.507 359.27745 729.0163 349.97717 740.7663 349.97717 L 1144.8186 349.97717 C 1156.5687 349.97717 1166.0779 359.27745 1166.0779 370.76926 C 1166.0779 382.26106 1156.5687 391.57504 1144.8186 391.57504 Z" fill="#ff9300"/>
      </g>
      <g id="Graphic_45" transform="matrix(1, 0, 0, 1, -10.835616, 62.114151)">
        <path d="M 910.8965 557.9528 L 740.7663 557.9528 C 729.0163 557.9528 719.507 548.65254 719.507 537.16074 C 719.507 525.6689 729.0163 516.35495 740.7663 516.35495 L 910.8965 516.35495 C 922.6466 516.35495 932.1558 525.6689 932.1558 537.16074 C 932.1558 548.65254 922.6466 557.9528 910.8965 557.9528 Z" fill="#d8e5ed"/>
      </g>
      <g id="Graphic_46" transform="matrix(1, 0, 0, 1, -10.835616, 62.114151)">
        <path d="M 910.8965 641.14856 L 740.7663 641.14856 C 729.0163 641.14856 719.507 631.8483 719.507 620.3565 C 719.507 608.851 729.0163 599.5507 740.7663 599.5507 L 910.8965 599.5507 C 922.6466 599.5507 932.1558 608.851 932.1558 620.3565 C 932.1558 631.8483 922.6466 641.14856 910.8965 641.14856 Z" fill="#d8e5ed"/>
      </g>
      <g id="Graphic_47" transform="matrix(1, 0, 0, 1, -10.835616, 62.114151)">
        <path d="M 910.8965 724.3443 L 740.7663 724.3443 C 729.0163 724.3443 719.507 715.044 719.507 703.5522 C 719.507 692.0467 729.0163 682.7464 740.7663 682.7464 L 910.8965 682.7464 C 922.6466 682.7464 932.1558 692.0467 932.1558 703.5522 C 932.1558 715.044 922.6466 724.3443 910.8965 724.3443 Z" fill="#d8e5ed"/>
      </g>
      <g id="Graphic_48" transform="matrix(1, 0, 0, 1, -10.835616, 62.114151)">
        <path d="M 1166.0779 557.9528 L 995.9477 557.9528 C 984.1976 557.9528 974.6884 548.65254 974.6884 537.16074 C 974.6884 525.6689 984.1976 516.35495 995.9477 516.35495 L 1166.0779 516.35495 C 1177.8279 516.35495 1187.3512 525.6689 1187.3512 537.16074 C 1187.3512 548.65254 1177.8279 557.9528 1166.0779 557.9528 Z" fill="#d8e5ed"/>
      </g>
      <g id="Graphic_49" transform="matrix(1, 0, 0, 1, -10.835616, 62.114151)">
        <path d="M 1166.0779 641.14856 L 995.9477 641.14856 C 984.1976 641.14856 974.6884 631.8483 974.6884 620.3565 C 974.6884 608.851 984.1976 599.5507 995.9477 599.5507 L 1166.0779 599.5507 C 1177.8279 599.5507 1187.3512 608.851 1187.3512 620.3565 C 1187.3512 631.8483 1177.8279 641.14856 1166.0779 641.14856 Z" fill="#d8e5ed"/>
      </g>
      <g id="Graphic_50" transform="matrix(1, 0, 0, 1, -10.835616, 62.114151)">
        <path d="M 1166.0779 724.3443 L 995.9477 724.3443 C 984.1976 724.3443 974.6884 715.044 974.6884 703.5385 C 974.6884 692.0467 984.1976 682.7464 995.9477 682.7464 L 1166.0779 682.7464 C 1177.8279 682.7464 1187.3512 692.0467 1187.3512 703.5385 C 1187.3512 715.044 1177.8279 724.3443 1166.0779 724.3443 Z" fill="#d8e5ed"/>
      </g>
      <g id="Graphic_51" transform="matrix(1, 0, 0, 1, -10.835616, 62.114151)">
        <path d="M 1029.9793 476.07885 L 753.52465 476.07885 C 741.7746 476.07885 732.2654 466.77856 732.2654 455.28676 C 732.2654 443.79495 741.7746 434.49467 753.52465 434.49467 L 1029.9793 434.49467 C 1041.7293 434.49467 1051.2386 443.79495 1051.2386 455.28676 C 1051.2386 466.77856 1041.7293 476.07885 1029.9793 476.07885 Z" fill="#ccc"/>
      </g>
      <g id="Graphic_52"/>
      <path d="M 1360.659 961.174 L 54.981 961.174 C 17.348 961.174 -13.129 942.296 -13.129 918.985 L -13.129 110.227 C -13.129 86.918 17.348 68.041 54.981 68.041 L 1360.659 68.041 C 1398.29 68.041 1428.767 86.918 1428.767 110.227 L 1428.767 918.985 C 1428.767 942.296 1398.29 961.174 1360.659 961.174 Z" fill-opacity=".19" style="fill: rgb(171, 173, 198);"/>
    </g>
  </g>
</svg>