<?xml version="1.0" encoding="utf-8"?>
<svg version="1.1" viewBox="0 0 1200 1200" width="1200" height="1200" xmlns="http://www.w3.org/2000/svg">
  <defs>
    <linearGradient id="Obj_Gradient" gradientTransform="translate(138.6533 896.4403) scale(934.484)"/>
  </defs>
  <g id="Canvas_1" fill-opacity="1" stroke-opacity="1" stroke-dasharray="none" fill="none" stroke="none" transform="matrix(1, 0, 0, 1, -4.221961, -1.327055)">
    <title>Canvas 1</title>
    <g id="Canvas_1_Layer_1">
      <title>Layer 1</title>
      <g id="Group_30">
        <g id="Graphic_33">
          <path d="M 930.1481 399.72916 L 283.54908 399.72916 C 270.1395 399.72916 259.27552 410.6667 259.27552 424.1432 L 259.27552 839.2029 C 259.27552 852.6901 270.15016 863.6169 283.54908 863.6169 L 514.3875 863.6169 L 514.3875 887.4525 L 699.3203 887.4525 L 699.3203 863.6276 L 930.1481 863.6276 C 943.5576 863.6276 954.4216 852.6901 954.4216 839.2136 L 954.4216 424.1539 C 954.4323 410.6667 943.5576 399.72916 930.1481 399.72916 Z" fill="#ccc"/>
        </g>
        <g id="Graphic_32">
          <path d="M 920.2533 830.9006 L 293.17755 830.9006 C 292.32547 830.9006 291.63316 830.2043 291.63316 829.3473 L 291.63316 434.0095 C 291.63316 433.15247 292.32547 432.45615 293.17755 432.45615 L 920.2533 432.45615 C 921.1054 432.45615 921.7977 433.15247 921.7977 434.0095 L 921.7977 829.3473 C 921.7977 830.2043 921.1054 830.9006 920.2533 830.9006 Z" fill="#f1f6ff"/>
        </g>
        <g id="Graphic_31">
          <path d="M 1066.1077 908.3635 L 978.5887 908.3635 C 990.8479 900.2326 998.9533 886.2741 998.9533 870.398 L 212.82664 870.398 C 212.82664 886.2741 220.93203 900.2326 233.1913 908.3635 L 145.67229 908.3635 C 141.79534 908.3635 138.6533 911.5237 138.6533 915.4231 C 138.6533 919.3224 141.79534 922.4827 145.67229 922.4827 L 1066.1183 922.4827 C 1069.9953 922.4827 1073.1373 919.3224 1073.1373 915.4231 C 1073.1373 911.5237 1069.9953 908.3635 1066.1077 908.3635 Z" fill="url(#Obj_Gradient)"/>
        </g>
      </g>
      <g id="Graphic_29">
        <rect x="334.269" y="488.8794" width="54.277335" height="321.12093" fill="#d0e2ff"/>
      </g>
      <g id="Graphic_28">
        <rect x="416.93115" y="558.28636" width="54.277335" height="251.714" fill="#26c2a2"/>
      </g>
      <g id="Graphic_27">
        <rect x="499.5933" y="669.6331" width="54.277335" height="140.36721" fill="#d0e2ff"/>
      </g>
      <g id="Graphic_26">
        <rect x="582.26614" y="517.5999" width="54.277335" height="292.40044" fill="#5b9bfd"/>
      </g>
      <g id="Graphic_25">
        <rect x="664.9283" y="621.0301" width="54.277335" height="188.97028" fill="#d0e2ff"/>
      </g>
      <g id="Graphic_24">
        <path d="M 1125.9661 843.9807 L 618.3623 843.9807 C 609.2983 843.9807 601.9385 836.589 601.9385 827.4619 L 601.9385 582.529 C 601.9385 573.41256 609.28764 566.01015 618.3623 566.01015 L 1125.9661 566.01015 C 1135.0301 566.01015 1142.3899 573.40184 1142.3899 582.529 L 1142.3899 827.4726 C 1142.3793 836.589 1135.0301 843.9807 1125.9661 843.9807 Z" fill-opacity=".19" fill="#0b1066"/>
      </g>
      <g id="Graphic_23">
        <path d="M 1108.9459 818.624 L 614.006 818.624 C 607.3492 818.624 601.9491 813.1927 601.9491 806.4973 L 601.9491 578.1368 C 601.9491 571.44144 607.3492 566.01015 614.006 566.01015 L 1108.9459 566.01015 C 1115.6027 566.01015 1121.0028 571.44144 1121.0028 578.1368 L 1121.0028 806.4866 C 1121.0028 813.1927 1115.6027 818.624 1108.9459 818.624 Z" fill="#f3be3e"/>
      </g>
      <g id="Graphic_22">
        <rect x="890.4839" y="621.0301" width="188.92688" height="25.474565" fill="white"/>
      </g>
      <g id="Graphic_21">
        <rect x="890.4839" y="678.31035" width="188.92688" height="25.474565" fill="white"/>
      </g>
      <g id="Graphic_20">
        <rect x="890.4839" y="735.5799" width="188.92688" height="25.474565" fill="white"/>
      </g>
      <g id="Graphic_19">
        <path d="M 824.384 691.0476 C 824.384 738.3438 786.2641 776.6842 739.2401 776.6842 C 692.2161 776.6842 654.0963 738.3438 654.0963 691.0476 C 654.0963 643.7515 692.2161 605.4111 739.2401 605.4111 C 786.2641 605.4111 824.384 643.7515 824.384 691.0476 Z" fill="#f5634a"/>
      </g>
      <g id="Graphic_18">
        <path d="M 821.178 656.2317 C 807.6726 624.1367 776.0818 601.6081 739.2508 601.6081 L 739.2508 691.0476 Z" fill="#856cf2"/>
      </g>
      <g id="Graphic_17">
        <path d="M 827.8988 697.6787 C 828.0585 695.48265 828.165 693.27585 828.165 691.0476 C 828.165 678.696 825.6727 666.9336 821.178 656.2317 L 739.2508 691.0476 Z" fill="#5b9bfd"/>
      </g>
      <g id="Graphic_16">
        <path d="M 1083.682 1006.916 L 121.232 1006.916 C 93.492 1006.916 71.027 989.795 71.027 968.655 L 71.027 235.176 C 71.027 214.036 93.492 196.916 121.232 196.916 L 1083.682 196.916 C 1111.421 196.916 1133.886 214.036 1133.886 235.176 L 1133.886 968.655 C 1133.886 989.795 1111.421 1006.916 1083.682 1006.916 Z" fill-opacity=".19" style="fill: rgb(171, 173, 198);"/>
      </g>
      <g id="Graphic_11">
        <path d="M 416.45186 790.3213 L 77.70846 790.3213 C 66.61015 790.3213 57.62073 781.2799 57.62073 770.1173 L 57.62073 702.7351 C 57.62073 691.57255 66.61015 682.5311 77.70846 682.5311 L 416.45186 682.5311 C 427.55017 682.5311 436.5396 691.57255 436.5396 702.7351 L 436.5396 770.1173 C 436.5396 781.2799 427.55017 790.3213 416.45186 790.3213 Z" fill-opacity=".19" fill="#0b1066"/>
      </g>
      <g id="Graphic_10">
        <path d="M 405.4707 773.7382 L 73.08594 773.7382 C 64.54386 773.7382 57.61008 766.775 57.61008 758.1728 L 57.61008 698.0858 C 57.61008 689.4943 64.53321 682.5204 73.08594 682.5204 L 405.4707 682.5204 C 414.0128 682.5204 420.94657 689.4836 420.94657 698.0858 L 420.94657 758.1728 C 420.94657 766.775 414.0128 773.7382 405.4707 773.7382 Z" fill="#ccc"/>
      </g>
      <g id="Graphic_9">
        <path d="M 139.49473 728.13465 C 139.49473 741.6325 128.60944 752.5808 115.18922 752.5808 C 101.769 752.5808 90.88371 741.6325 90.88371 728.13465 C 90.88371 714.6368 101.769 703.6885 115.18922 703.6885 C 128.60944 703.6885 139.49473 714.6368 139.49473 728.13465 Z" fill="white"/>
      </g>
      <g id="Graphic_8">
        <path d="M 209.0349 728.13465 C 209.0349 741.6325 198.1496 752.5808 184.7294 752.5808 C 171.30917 752.5808 160.42388 741.6325 160.42388 728.13465 C 160.42388 714.6368 171.30917 703.6885 184.7294 703.6885 C 198.1496 703.6885 209.0349 714.6368 209.0349 728.13465 Z" fill="white"/>
      </g>
      <g id="Graphic_7">
        <path d="M 278.56442 728.13465 C 278.56442 741.6325 267.67913 752.5808 254.2589 752.5808 C 240.8387 752.5808 229.9534 741.6325 229.9534 728.13465 C 229.9534 714.6368 240.8387 703.6885 254.2589 703.6885 C 267.67913 703.6885 278.56442 714.6368 278.56442 728.13465 Z" fill="white"/>
      </g>
      <g id="Graphic_6">
        <path d="M 398.98427 728.13465 C 398.98427 741.6325 388.099 752.5808 374.67876 752.5808 C 361.25854 752.5808 350.37325 741.6325 350.37325 728.13465 C 350.37325 714.6368 361.25854 703.6885 374.67876 703.6885 C 388.099 703.6885 398.98427 714.6368 398.98427 728.13465 Z" fill="#f9bc00"/>
      </g>
    </g>
  </g>
</svg>