<svg xmlns="http://www.w3.org/2000/svg" xmlns:xlink="http://www.w3.org/1999/xlink" viewBox="0 0 1590.32 2243.97"><defs><style>.cls-1{fill:url(#未命名的渐变_2);}.cls-2{fill:url(#未命名的渐变_4);}.cls-3{opacity:0.17;isolation:isolate;}.cls-4{fill:url(#未命名的渐变_5);}.cls-5{fill:url(#未命名的渐变_7);}.cls-6{fill:url(#未命名的渐变_9);}.cls-7{fill:url(#未命名的渐变_9-2);}</style><linearGradient id="未命名的渐变_2" x1="1073.7" y1="-429.2" x2="531.68" y2="-959.08" gradientTransform="matrix(1, 0, 0, -1, 0, -194.2)" gradientUnits="userSpaceOnUse"><stop offset="0" stop-color="#f658e1"/><stop offset="1" stop-color="#d033ff"/></linearGradient><linearGradient id="未命名的渐变_4" x1="1339.65" y1="-405.27" x2="627.56" y2="-1141.64" gradientTransform="matrix(1, 0, 0, -1, 0, -194.2)" gradientUnits="userSpaceOnUse"><stop offset="0" stop-color="#d033ff"/><stop offset="1" stop-color="#fc5dde"/></linearGradient><linearGradient id="未命名的渐变_5" x1="230.78" y1="-2276.84" x2="716.47" y2="-1734.49" gradientTransform="matrix(1, 0, 0, -1, 0, -194.2)" gradientUnits="userSpaceOnUse"><stop offset="0" stop-color="#4de9f8"/><stop offset="1" stop-color="#3aa7fc"/></linearGradient><linearGradient id="未命名的渐变_7" x1="780.42" y1="-2105.77" x2="1168.73" y2="-1401.96" gradientTransform="matrix(1, 0, 0, -1, 0, -194.2)" gradientUnits="userSpaceOnUse"><stop offset="0" stop-color="#3cabfc"/><stop offset="1" stop-color="#4de5fa"/></linearGradient><linearGradient id="未命名的渐变_9" x1="1301.63" y1="-1008.65" x2="314.68" y2="-1340.33" gradientTransform="matrix(1, 0, 0, -1, 0, -194.2)" gradientUnits="userSpaceOnUse"><stop offset="0" stop-color="#ff8762"/><stop offset="1" stop-color="#f44266"/></linearGradient><linearGradient id="未命名的渐变_9-2" x1="309.16" y1="-1576.48" x2="1598.13" y2="-1231.32" xlink:href="#未命名的渐变_9"/></defs><title>资888888</title><g id="图层_2" data-name="图层 2"><g id="图层_1-2" data-name="图层 1"><polygon class="cls-1" points="1369.08 0 0 1100.43 558.74 922.65 1369.08 0"/><polygon class="cls-2" points="1369.08 0 558.74 922.65 945.11 799.72 1369.08 0"/><polygon class="cls-3" points="0 1100.43 242.94 905.16 1014.61 668.61 945.11 799.72 0 1100.43"/><polygon class="cls-4" points="649.26 1442.9 214.05 2243.97 1084.47 1301.79 649.26 1442.9"/><polygon class="cls-5" points="1590.32 1137.79 1084.47 1301.79 214.05 2243.97 214.05 2243.97 1590.32 1137.79"/><polygon class="cls-6" points="1169.39 728.36 0 1100.43 104.87 1347.53 106.31 1348.97 1495.5 900.75 1169.39 728.36"/><polygon class="cls-7" points="1590.32 1137.79 1495.5 900.75 1495.5 900.75 106.31 1348.97 433.85 1512.74 1590.32 1137.79"/><polygon class="cls-3" points="564.17 1599.52 1366.21 1318.8 1590.32 1137.79 649.26 1442.9 564.17 1599.52"/></g></g></svg>