<?xml version="1.0" encoding="UTF-8" standalone="no"?>
<!DOCTYPE svg PUBLIC "-//W3C//DTD SVG 1.1//EN" "http://www.w3.org/Graphics/SVG/1.1/DTD/svg11.dtd">
<svg xmlns:dc="http://purl.org/dc/elements/1.1/" version="1.1" xmlns:xl="http://www.w3.org/1999/xlink" xmlns="http://www.w3.org/2000/svg" viewBox="0 0 48 48" width="48" height="48">
  <defs>
    <linearGradient x1="0" x2="1" id="Gradient" gradientUnits="userSpaceOnUse">
      <stop offset="0" stop-color="#0052cc"/>
      <stop offset="0" stop-color="#126ce6"/>
      <stop offset="1" stop-color="#2684ff"/>
    </linearGradient>
    <linearGradient id="Obj_Gradient" xl:href="#Gradient" gradientTransform="translate(13.648316 20.22203) rotate(48.954856) scale(29.634093)"/>
    <linearGradient x1="0" x2="1" id="Gradient_2" gradientUnits="userSpaceOnUse">
      <stop offset="0" stop-color="#0052cc"/>
      <stop offset="0" stop-color="#126ce6"/>
      <stop offset="1" stop-color="#2684ff"/>
    </linearGradient>
    <linearGradient id="Obj_Gradient_2" xl:href="#Gradient_2" gradientTransform="translate(16.299787 5.022512) rotate(54.223815) scale(28.415005)"/>
  </defs>
  <g id="Canvas_1" stroke-opacity="1" fill="none" stroke="none" stroke-dasharray="none" fill-opacity="1">
    <title>Canvas 1</title>
    <g id="Canvas_1_Layer_1">
      <title>Layer 1</title>
      <g id="Group_2">
        <title>Blank-states</title>
        <g id="Group_3">
          <title>Default-space-avatar</title>
          <g id="Group_5">
            <title>Group-39</title>
            <g id="Group_6">
              <title>icon/Confluence-Blue---580</title>
              <g id="Group_7">
                <title>Confluence-icon-white</title>
                <g id="Graphic_9">
                  <title>Shape</title>
                  <path d="M 10.132087 31.76935 C 9.822875 32.273603 9.475608 32.858725 9.180668 33.32492 C 8.916674 33.771038 9.058396 34.34639 9.499393 34.61885 L 15.683616 38.424526 C 15.900695 38.558554 16.162507 38.599785 16.410272 38.538962 C 16.658037 38.47814 16.870994 38.32036 17.001332 38.101044 C 17.2487 37.687176 17.567426 37.149625 17.914694 36.574016 C 20.364598 32.530486 22.828773 33.025223 27.2719 35.146888 L 33.403795 38.062987 C 33.63603 38.173525 33.903127 38.18533 34.14421 38.095707 C 34.38529 38.006085 34.579817 37.822675 34.683453 37.587278 L 37.628095 30.927345 C 37.83614 30.451685 37.62445 29.897062 37.152385 29.680986 C 35.858456 29.072078 33.284867 27.85902 30.968162 26.7411 C 22.633732 22.69757 15.550418 22.963968 10.132087 31.76935 Z" fill="url(#Obj_Gradient)"/>
                </g>
                <g id="Graphic_8">
                  <title>Shape</title>
                  <path d="M 37.861193 16.185108 C 38.170404 15.680856 38.51767 15.095733 38.81261 14.629538 C 39.076606 14.18342 38.934883 13.608069 38.493886 13.335608 L 32.309663 9.529932 C 32.08962 9.383311 31.818486 9.334875 31.561288 9.396242 C 31.30409 9.457608 31.08403 9.623241 30.95389 9.853414 C 30.706522 10.267282 30.387796 10.804833 30.04053 11.380442 C 27.590625 15.423972 25.12645 14.929235 20.683323 12.80757 L 14.570456 9.896228 C 14.33822 9.78569 14.071123 9.773887 13.830042 9.863508 C 13.58896 9.95313 13.394434 10.13654 13.290798 10.371938 L 10.346156 17.03187 C 10.138112 17.50753 10.3498 18.062153 10.821865 18.27823 C 12.115795 18.887138 14.689383 20.100197 17.006089 21.218114 C 25.359547 25.256888 32.44286 24.99049 37.861193 16.185108 Z" fill="url(#Obj_Gradient_2)"/>
                </g>
              </g>
            </g>
          </g>
        </g>
      </g>
    </g>
  </g>
</svg>
