<svg t="1675550461945" class="icon" viewBox="0 0 1024 1024" version="1.1" xmlns="http://www.w3.org/2000/svg" p-id="6099" width="200" height="200"><path d="M97.186909 696.413091c69.678545 57.483636 209.082182 86.202182 340.247273 86.202182h6.423273c22.434909 0 44.916364-0.372364 67.351272-4.096 12.288 49.245091 36.910545 90.298182 77.870546 123.112727-45.056 8.238545-98.350545 12.334545-155.741091 12.334545-196.794182 0-336.151273-61.579636-336.151273-119.016727v-98.536727z m547.84-128.930909a166.074182 166.074182 0 0 1 202.472727 25.413818 166.539636 166.539636 0 0 1 29.928728 194.466909l38.772363 36.910546a50.036364 50.036364 0 1 1-70.609454 70.935272l-38.725818-36.910545a165.934545 165.934545 0 0 1-194.187637-30.021818 166.679273 166.679273 0 0 1-25.367273-202.705455l103.33091 103.470546a12.427636 12.427636 0 0 0 17.640727 0l40.075636-40.401455a12.474182 12.474182 0 0 0 0-17.687273zM93.090909 499.432727c49.198545 41.053091 139.357091 65.629091 233.658182 77.963637h4.096c32.814545 4.096 65.629091 4.096 102.493091 4.096 32.768 0 117.108364-2.932364 131.165091-8.192-36.910545 41.053091-61.486545 94.394182-61.486546 151.877818v8.192c-24.622545 4.096-45.102545 4.096-69.678545 4.096-196.794182 0-336.151273-61.533091-340.247273-114.920727z m680.494546-205.265454v127.255272c0 45.149091-184.32 102.027636-254.138182 110.824728-46.545455 5.864727-103.982545 5.864727-172.218182 0-147.549091-12.288-250.042182-65.629091-254.138182-110.778182V294.167273c69.678545 53.341091 209.035636 82.059636 340.247273 82.059636 131.165091 0 270.522182-28.718545 340.247273-82.059636zM433.338182 93.090909c200.843636 0 340.247273 61.579636 340.247273 119.016727 0 57.483636-139.403636 119.016727-340.247273 119.016728C232.448 331.124364 93.090909 265.495273 93.090909 212.107636 93.090909 154.670545 232.448 93.090909 433.338182 93.090909z" fill="#e16531" p-id="6100"></path></svg>
